<?xml version="1.0" encoding="UTF-8"?>
<svg version="1.1" xmlns="http://www.w3.org/2000/svg" width="5200" height="1052">
<path d="M0 0 C30.69 0 61.38 0 93 0 C93 0.66 93 1.32 93 2 C100.92 2 108.84 2 117 2 C117 2.66 117 3.32 117 4 C122.28 4 127.56 4 133 4 C133 4.66 133 5.32 133 6 C137.62 6 142.24 6 147 6 C147 6.66 147 7.32 147 8 C150.96 8 154.92 8 159 8 C159 8.66 159 9.32 159 10 C162.96 10 166.92 10 171 10 C171 10.66 171 11.32 171 12 C173.64 12 176.28 12 179 12 C179 12.66 179 13.32 179 14 C182.3 14 185.6 14 189 14 C189 14.66 189 15.32 189 16 C191.64 16 194.28 16 197 16 C197 16.66 197 17.32 197 18 C199.64 18 202.28 18 205 18 C205 18.66 205 19.32 205 20 C207.64 20 210.28 20 213 20 C213 20.66 213 21.32 213 22 C214.98 22 216.96 22 219 22 C219 22.66 219 23.32 219 24 C221.64 24 224.28 24 227 24 C227 24.66 227 25.32 227 26 C228.98 26 230.96 26 233 26 C233 26.66 233 27.32 233 28 C234.98 28 236.96 28 239 28 C239 28.66 239 29.32 239 30 C240.98 30 242.96 30 245 30 C245 30.66 245 31.32 245 32 C246.98 32 248.96 32 251 32 C251 32.66 251 33.32 251 34 C252.32 34 253.64 34 255 34 C255 34.66 255 35.32 255 36 C256.98 36 258.96 36 261 36 C261 36.66 261 37.32 261 38 C262.98 38 264.96 38 267 38 C267 38.66 267 39.32 267 40 C268.32 40 269.64 40 271 40 C271 40.66 271 41.32 271 42 C272.32 42 273.64 42 275 42 C275 42.66 275 43.32 275 44 C276.98 44 278.96 44 281 44 C281 44.66 281 45.32 281 46 C282.32 46 283.64 46 285 46 C285 46.66 285 47.32 285 48 C286.32 48 287.64 48 289 48 C289 48.66 289 49.32 289 50 C290.32 50 291.64 50 293 50 C293 50.66 293 51.32 293 52 C294.98 52 296.96 52 299 52 C299 52.66 299 53.32 299 54 C300.32 54 301.64 54 303 54 C303 54.66 303 55.32 303 56 C304.32 56 305.64 56 307 56 C307 56.66 307 57.32 307 58 C308.32 58 309.64 58 311 58 C311 58.66 311 59.32 311 60 C312.32 60 313.64 60 315 60 C315 60.66 315 61.32 315 62 C316.32 62 317.64 62 319 62 C319 62.66 319 63.32 319 64 C320.32 64 321.64 64 323 64 C323 64.66 323 65.32 323 66 C323.66 66 324.32 66 325 66 C325 66.66 325 67.32 325 68 C326.32 68 327.64 68 329 68 C329 68.66 329 69.32 329 70 C330.32 70 331.64 70 333 70 C333 70.66 333 71.32 333 72 C334.32 72 335.64 72 337 72 C337 72.66 337 73.32 337 74 C337.66 74 338.32 74 339 74 C339 74.66 339 75.32 339 76 C340.32 76 341.64 76 343 76 C343 76.66 343 77.32 343 78 C344.32 78 345.64 78 347 78 C347 78.66 347 79.32 347 80 C348.32 80 349.64 80 351 80 C351 80.66 351 81.32 351 82 C351.66 82 352.32 82 353 82 C353 82.66 353 83.32 353 84 C354.32 84 355.64 84 357 84 C357 84.66 357 85.32 357 86 C357.66 86 358.32 86 359 86 C359 86.66 359 87.32 359 88 C360.32 88 361.64 88 363 88 C363 88.66 363 89.32 363 90 C363.66 90 364.32 90 365 90 C365 90.66 365 91.32 365 92 C366.32 92 367.64 92 369 92 C369 92.66 369 93.32 369 94 C370.32 94 371.64 94 373 94 C373 94.66 373 95.32 373 96 C373.66 96 374.32 96 375 96 C375 96.66 375 97.32 375 98 C375.61875 98.144375 376.2375 98.28875 376.875 98.4375 C379 99 379 99 381 100 C381 100.66 381 101.32 381 102 C382.32 102 383.64 102 385 102 C385 102.66 385 103.32 385 104 C385.66 104 386.32 104 387 104 C387 104.66 387 105.32 387 106 C387.66 106 388.32 106 389 106 C389 106.66 389 107.32 389 108 C390.32 108 391.64 108 393 108 C393 108.66 393 109.32 393 110 C393.66 110 394.32 110 395 110 C395 110.66 395 111.32 395 112 C396.32 112 397.64 112 399 112 C399 112.66 399 113.32 399 114 C399.66 114 400.32 114 401 114 C401 114.66 401 115.32 401 116 C401.66 116 402.32 116 403 116 C403 116.66 403 117.32 403 118 C404.32 118 405.64 118 407 118 C407 118.66 407 119.32 407 120 C407.66 120 408.32 120 409 120 C409 120.66 409 121.32 409 122 C409.66 122 410.32 122 411 122 C411 122.66 411 123.32 411 124 C412.32 124 413.64 124 415 124 C415 124.66 415 125.32 415 126 C415.66 126 416.32 126 417 126 C417 126.66 417 127.32 417 128 C418.32 128 419.64 128 421 128 C421 128.66 421 129.32 421 130 C421.66 130 422.32 130 423 130 C423 130.66 423 131.32 423 132 C423.66 132 424.32 132 425 132 C425 132.66 425 133.32 425 134 C425.66 134 426.32 134 427 134 C427 134.66 427 135.32 427 136 C428.32 136 429.64 136 431 136 C431 136.66 431 137.32 431 138 C431.66 138 432.32 138 433 138 C433 138.66 433 139.32 433 140 C433.66 140 434.32 140 435 140 C435 140.66 435 141.32 435 142 C436.32 142 437.64 142 439 142 C439 142.66 439 143.32 439 144 C439.66 144 440.32 144 441 144 C441 144.66 441 145.32 441 146 C441.66 146 442.32 146 443 146 C443 146.66 443 147.32 443 148 C443.66 148 444.32 148 445 148 C445 148.66 445 149.32 445 150 C446.32 150 447.64 150 449 150 C449 150.66 449 151.32 449 152 C449.66 152 450.32 152 451 152 C451 152.66 451 153.32 451 154 C451.66 154 452.32 154 453 154 C453 154.66 453 155.32 453 156 C453.66 156 454.32 156 455 156 C455 156.66 455 157.32 455 158 C455.61875 158.144375 456.2375 158.28875 456.875 158.4375 C459 159 459 159 461 160 C461 160.66 461 161.32 461 162 C461.66 162 462.32 162 463 162 C463 162.66 463 163.32 463 164 C463.66 164 464.32 164 465 164 C465 164.66 465 165.32 465 166 C465.66 166 466.32 166 467 166 C467 166.66 467 167.32 467 168 C468.32 168 469.64 168 471 168 C471 168.66 471 169.32 471 170 C471.66 170 472.32 170 473 170 C473 170.66 473 171.32 473 172 C473.66 172 474.32 172 475 172 C475 172.66 475 173.32 475 174 C475.66 174 476.32 174 477 174 C477 174.66 477 175.32 477 176 C477.66 176 478.32 176 479 176 C479 176.66 479 177.32 479 178 C480.32 178 481.64 178 483 178 C483 178.66 483 179.32 483 180 C483.66 180 484.32 180 485 180 C485 180.66 485 181.32 485 182 C485.66 182 486.32 182 487 182 C487 182.66 487 183.32 487 184 C487.66 184 488.32 184 489 184 C489 184.66 489 185.32 489 186 C489.66 186 490.32 186 491 186 C491 186.66 491 187.32 491 188 C491.66 188 492.32 188 493 188 C493 188.66 493 189.32 493 190 C493.66 190 494.32 190 495 190 C495 190.66 495 191.32 495 192 C496.32 192 497.64 192 499 192 C499 192.66 499 193.32 499 194 C499.66 194 500.32 194 501 194 C501 194.66 501 195.32 501 196 C501.66 196 502.32 196 503 196 C503 196.66 503 197.32 503 198 C503.66 198 504.32 198 505 198 C505 198.66 505 199.32 505 200 C505.66 200 506.32 200 507 200 C507 200.66 507 201.32 507 202 C507.66 202 508.32 202 509 202 C509 202.66 509 203.32 509 204 C509.66 204 510.32 204 511 204 C511 204.66 511 205.32 511 206 C511.66 206 512.32 206 513 206 C513 206.66 513 207.32 513 208 C514.32 208 515.64 208 517 208 C517 208.66 517 209.32 517 210 C517.66 210 518.32 210 519 210 C519 210.66 519 211.32 519 212 C519.66 212 520.32 212 521 212 C521 212.66 521 213.32 521 214 C521.66 214 522.32 214 523 214 C523 214.66 523 215.32 523 216 C523.66 216 524.32 216 525 216 C525 216.66 525 217.32 525 218 C525.66 218 526.32 218 527 218 C527 218.66 527 219.32 527 220 C527.66 220 528.32 220 529 220 C529 220.66 529 221.32 529 222 C529.66 222 530.32 222 531 222 C531 222.66 531 223.32 531 224 C531.66 224 532.32 224 533 224 C533 224.66 533 225.32 533 226 C533.66 226 534.32 226 535 226 C535 226.66 535 227.32 535 228 C535.66 228 536.32 228 537 228 C537 228.66 537 229.32 537 230 C537.66 230 538.32 230 539 230 C539 230.66 539 231.32 539 232 C539.66 232 540.32 232 541 232 C541 232.66 541 233.32 541 234 C542.32 234 543.64 234 545 234 C545 234.66 545 235.32 545 236 C545.66 236 546.32 236 547 236 C547 236.66 547 237.32 547 238 C547.66 238 548.32 238 549 238 C549 238.66 549 239.32 549 240 C549.66 240 550.32 240 551 240 C551 240.66 551 241.32 551 242 C551.66 242 552.32 242 553 242 C553 242.66 553 243.32 553 244 C553.66 244 554.32 244 555 244 C555 244.66 555 245.32 555 246 C555.66 246 556.32 246 557 246 C557 246.66 557 247.32 557 248 C557.66 248 558.32 248 559 248 C559 248.66 559 249.32 559 250 C559.66 250 560.32 250 561 250 C561 250.66 561 251.32 561 252 C561.66 252 562.32 252 563 252 C563 252.66 563 253.32 563 254 C563.66 254 564.32 254 565 254 C565 254.66 565 255.32 565 256 C565.66 256 566.32 256 567 256 C567 256.66 567 257.32 567 258 C567.66 258 568.32 258 569 258 C569 258.66 569 259.32 569 260 C569.66 260 570.32 260 571 260 C571 260.66 571 261.32 571 262 C571.66 262 572.32 262 573 262 C573 262.66 573 263.32 573 264 C573.66 264 574.32 264 575 264 C575 264.66 575 265.32 575 266 C575.66 266 576.32 266 577 266 C577 266.66 577 267.32 577 268 C577.66 268 578.32 268 579 268 C579 268.66 579 269.32 579 270 C579.66 270 580.32 270 581 270 C581 270.66 581 271.32 581 272 C581.66 272 582.32 272 583 272 C583 272.66 583 273.32 583 274 C583.66 274 584.32 274 585 274 C585 274.66 585 275.32 585 276 C585.66 276 586.32 276 587 276 C587 276.66 587 277.32 587 278 C587.66 278 588.32 278 589 278 C589 278.66 589 279.32 589 280 C589.66 280 590.32 280 591 280 C591 280.66 591 281.32 591 282 C591.66 282 592.32 282 593 282 C593 282.66 593 283.32 593 284 C593.66 284 594.32 284 595 284 C595 284.66 595 285.32 595 286 C595.66 286 596.32 286 597 286 C597 286.66 597 287.32 597 288 C597.66 288 598.32 288 599 288 C599 288.66 599 289.32 599 290 C599.66 290 600.32 290 601 290 C601 290.66 601 291.32 601 292 C601.66 292 602.32 292 603 292 C603 292.66 603 293.32 603 294 C603.66 294 604.32 294 605 294 C605 294.66 605 295.32 605 296 C605.66 296 606.32 296 607 296 C607 296.66 607 297.32 607 298 C607.66 298 608.32 298 609 298 C609 298.66 609 299.32 609 300 C609.66 300 610.32 300 611 300 C611 300.66 611 301.32 611 302 C611.66 302 612.32 302 613 302 C613 302.66 613 303.32 613 304 C613.66 304 614.32 304 615 304 C615 304.66 615 305.32 615 306 C615.66 306 616.32 306 617 306 C617 306.66 617 307.32 617 308 C617.66 308 618.32 308 619 308 C619 309.32 619 310.64 619 312 C619.66 312 620.32 312 621 312 C621 312.66 621 313.32 621 314 C621.66 314 622.32 314 623 314 C623 314.66 623 315.32 623 316 C623.66 316 624.32 316 625 316 C625 316.66 625 317.32 625 318 C625.66 318 626.32 318 627 318 C627 318.66 627 319.32 627 320 C627.66 320 628.32 320 629 320 C629 320.66 629 321.32 629 322 C629.66 322 630.32 322 631 322 C631 322.66 631 323.32 631 324 C631.66 324 632.32 324 633 324 C633 324.66 633 325.32 633 326 C633.66 326 634.32 326 635 326 C635 326.66 635 327.32 635 328 C635.66 328 636.32 328 637 328 C637 328.66 637 329.32 637 330 C637.66 330 638.32 330 639 330 C639 330.66 639 331.32 639 332 C639.66 332 640.32 332 641 332 C641 332.66 641 333.32 641 334 C641.66 334 642.32 334 643 334 C643 334.66 643 335.32 643 336 C643.66 336 644.32 336 645 336 C645 336.66 645 337.32 645 338 C645.66 338 646.32 338 647 338 C647 338.66 647 339.32 647 340 C647.66 340 648.32 340 649 340 C649 340.66 649 341.32 649 342 C649.66 342 650.32 342 651 342 C651 342.66 651 343.32 651 344 C651.66 344 652.32 344 653 344 C653 345.32 653 346.64 653 348 C653.66 348 654.32 348 655 348 C655 348.66 655 349.32 655 350 C655.66 350 656.32 350 657 350 C657 350.66 657 351.32 657 352 C657.66 352 658.32 352 659 352 C659 352.66 659 353.32 659 354 C659.66 354 660.32 354 661 354 C661 354.66 661 355.32 661 356 C661.66 356 662.32 356 663 356 C663 356.66 663 357.32 663 358 C663.66 358 664.32 358 665 358 C665 358.66 665 359.32 665 360 C665.66 360 666.32 360 667 360 C667 360.66 667 361.32 667 362 C667.66 362 668.32 362 669 362 C669 362.66 669 363.32 669 364 C669.66 364 670.32 364 671 364 C671 364.66 671 365.32 671 366 C671.66 366 672.32 366 673 366 C673 366.66 673 367.32 673 368 C673.66 368 674.32 368 675 368 C675 368.66 675 369.32 675 370 C675.66 370 676.32 370 677 370 C677 370.66 677 371.32 677 372 C677.66 372 678.32 372 679 372 C679 372.66 679 373.32 679 374 C679.66 374 680.32 374 681 374 C681 374.66 681 375.32 681 376 C681.66 376 682.32 376 683 376 C683 376.66 683 377.32 683 378 C683.66 378 684.32 378 685 378 C685 379.32 685 380.64 685 382 C685.66 382 686.32 382 687 382 C687 382.66 687 383.32 687 384 C687.66 384 688.32 384 689 384 C689 384.66 689 385.32 689 386 C689.66 386 690.32 386 691 386 C691 386.66 691 387.32 691 388 C691.66 388 692.32 388 693 388 C693 388.66 693 389.32 693 390 C693.66 390 694.32 390 695 390 C695 390.66 695 391.32 695 392 C695.66 392 696.32 392 697 392 C697 392.66 697 393.32 697 394 C697.66 394 698.32 394 699 394 C699 394.66 699 395.32 699 396 C699.66 396 700.32 396 701 396 C701 396.66 701 397.32 701 398 C701.66 398 702.32 398 703 398 C703 398.66 703 399.32 703 400 C703.66 400 704.32 400 705 400 C705 400.66 705 401.32 705 402 C705.66 402 706.32 402 707 402 C707 402.66 707 403.32 707 404 C707.66 404 708.32 404 709 404 C709 404.66 709 405.32 709 406 C709.66 406 710.32 406 711 406 C711 406.66 711 407.32 711 408 C711.66 408 712.32 408 713 408 C713 408.66 713 409.32 713 410 C713.66 410 714.32 410 715 410 C715 410.66 715 411.32 715 412 C715.66 412 716.32 412 717 412 C717 412.66 717 413.32 717 414 C717.66 414 718.32 414 719 414 C719 414.66 719 415.32 719 416 C719.66 416 720.32 416 721 416 C721 416.66 721 417.32 721 418 C721.66 418 722.32 418 723 418 C723 418.66 723 419.32 723 420 C723.66 420 724.32 420 725 420 C725 420.66 725 421.32 725 422 C725.66 422 726.32 422 727 422 C727 422.66 727 423.32 727 424 C727.66 424 728.32 424 729 424 C729 424.66 729 425.32 729 426 C729.66 426 730.32 426 731 426 C731 426.66 731 427.32 731 428 C731.66 428 732.32 428 733 428 C733 428.66 733 429.32 733 430 C733.66 430 734.32 430 735 430 C735 430.66 735 431.32 735 432 C735.66 432 736.32 432 737 432 C737 432.66 737 433.32 737 434 C737.66 434 738.32 434 739 434 C739 434.66 739 435.32 739 436 C739.66 436 740.32 436 741 436 C741 436.66 741 437.32 741 438 C742.32 438 743.64 438 745 438 C745 438.66 745 439.32 745 440 C745.66 440 746.32 440 747 440 C747 440.66 747 441.32 747 442 C747.66 442 748.32 442 749 442 C749 442.66 749 443.32 749 444 C749.66 444 750.32 444 751 444 C751 444.66 751 445.32 751 446 C751.66 446 752.32 446 753 446 C753 446.66 753 447.32 753 448 C753.66 448 754.32 448 755 448 C755 448.66 755 449.32 755 450 C755.66 450 756.32 450 757 450 C757 450.66 757 451.32 757 452 C757.66 452 758.32 452 759 452 C759 452.66 759 453.32 759 454 C760.32 454 761.64 454 763 454 C763 454.66 763 455.32 763 456 C763.66 456 764.32 456 765 456 C765 456.66 765 457.32 765 458 C765.66 458 766.32 458 767 458 C767 458.66 767 459.32 767 460 C767.66 460 768.32 460 769 460 C769 460.66 769 461.32 769 462 C770.32 462 771.64 462 773 462 C773 462.66 773 463.32 773 464 C773.66 464 774.32 464 775 464 C775 464.66 775 465.32 775 466 C775.66 466 776.32 466 777 466 C777 466.66 777 467.32 777 468 C778.32 468 779.64 468 781 468 C781 468.66 781 469.32 781 470 C781.66 470 782.32 470 783 470 C783 470.66 783 471.32 783 472 C783.66 472 784.32 472 785 472 C785 472.66 785 473.32 785 474 C786.32 474 787.64 474 789 474 C789 474.66 789 475.32 789 476 C789.66 476 790.32 476 791 476 C791 476.66 791 477.32 791 478 C792.32 478 793.64 478 795 478 C795 478.66 795 479.32 795 480 C795.66 480 796.32 480 797 480 C797 480.66 797 481.32 797 482 C798.32 482 799.64 482 801 482 C801 482.66 801 483.32 801 484 C801.66 484 802.32 484 803 484 C803 484.66 803 485.32 803 486 C804.32 486 805.64 486 807 486 C807 486.66 807 487.32 807 488 C808.32 488 809.64 488 811 488 C811 488.66 811 489.32 811 490 C811.66 490 812.32 490 813 490 C813 490.66 813 491.32 813 492 C814.32 492 815.64 492 817 492 C817 492.66 817 493.32 817 494 C818.32 494 819.64 494 821 494 C821 494.66 821 495.32 821 496 C822.32 496 823.64 496 825 496 C825 496.66 825 497.32 825 498 C826.32 498 827.64 498 829 498 C829 498.66 829 499.32 829 500 C830.32 500 831.64 500 833 500 C833 500.66 833 501.32 833 502 C834.32 502 835.64 502 837 502 C837 502.66 837 503.32 837 504 C838.32 504 839.64 504 841 504 C841 504.66 841 505.32 841 506 C842.32 506 843.64 506 845 506 C845 506.66 845 507.32 845 508 C846.98 508 848.96 508 851 508 C851 508.66 851 509.32 851 510 C852.32 510 853.64 510 855 510 C855 510.66 855 511.32 855 512 C856.98 512 858.96 512 861 512 C861 512.66 861 513.32 861 514 C862.32 514 863.64 514 865 514 C865 514.66 865 515.32 865 516 C866.98 516 868.96 516 871 516 C871 516.66 871 517.32 871 518 C873.64 518 876.28 518 879 518 C879 518.66 879 519.32 879 520 C880.98 520 882.96 520 885 520 C885 520.66 885 521.32 885 522 C886.98 522 888.96 522 891 522 C891 522.66 891 523.32 891 524 C893.64 524 896.28 524 899 524 C899 524.66 899 525.32 899 526 C901.64 526 904.28 526 907 526 C907 526.66 907 527.32 907 528 C910.96 528 914.92 528 919 528 C919 528.66 919 529.32 919 530 C922.3 530 925.6 530 929 530 C929 530.66 929 531.32 929 532 C934.28 532 939.56 532 945 532 C945 532.66 945 533.32 945 534 C952.92 534 960.84 534 969 534 C969 534.66 969 535.32 969 536 C981.21 536 993.42 536 1006 536 C1006 535.34 1006 534.68 1006 534 C1014.58 534 1023.16 534 1032 534 C1032 533.34 1032 532.68 1032 532 C1037.28 532 1042.56 532 1048 532 C1048 531.34 1048 530.68 1048 530 C1051.96 530 1055.92 530 1060 530 C1060 529.34 1060 528.68 1060 528 C1063.3 528 1066.6 528 1070 528 C1070 527.34 1070 526.68 1070 526 C1073.3 526 1076.6 526 1080 526 C1080 525.34 1080 524.68 1080 524 C1082.64 524 1085.28 524 1088 524 C1088 523.34 1088 522.68 1088 522 C1091.3 522 1094.6 522 1098 522 C1098 521.34 1098 520.68 1098 520 C1100.64 520 1103.28 520 1106 520 C1106 519.34 1106 518.68 1106 518 C1108.64 518 1111.28 518 1114 518 C1114 517.34 1114 516.68 1114 516 C1115.98 516 1117.96 516 1120 516 C1120 515.34 1120 514.68 1120 514 C1124.873261 512.4087311 1128.80790596 511.78807779 1134 512 C1134 511.34 1134 510.68 1134 510 C1135.98 510 1137.96 510 1140 510 C1140 509.34 1140 508.68 1140 508 C1141.98 508 1143.96 508 1146 508 C1146 507.34 1146 506.68 1146 506 C1147.98 506 1149.96 506 1152 506 C1152 505.34 1152 504.68 1152 504 C1153.98 504 1155.96 504 1158 504 C1158 503.34 1158 502.68 1158 502 C1159.98 502 1161.96 502 1164 502 C1164 501.34 1164 500.68 1164 500 C1165.98 500 1167.96 500 1170 500 C1170 499.34 1170 498.68 1170 498 C1171.98 498 1173.96 498 1176 498 C1176 497.34 1176 496.68 1176 496 C1177.32 496 1178.64 496 1180 496 C1180 495.34 1180 494.68 1180 494 C1181.98 494 1183.96 494 1186 494 C1186 493.34 1186 492.68 1186 492 C1189.50776784 490.39644899 1192.14354879 489.77963136 1196 490 C1196 489.34 1196 488.68 1196 488 C1199.50776784 486.39644899 1202.14354879 485.77963136 1206 486 C1206 485.34 1206 484.68 1206 484 C1207.98 484 1209.96 484 1212 484 C1212 483.34 1212 482.68 1212 482 C1213.32 482 1214.64 482 1216 482 C1216 481.34 1216 480.68 1216 480 C1217.32 480 1218.64 480 1220 480 C1220 479.34 1220 478.68 1220 478 C1221.32 478 1222.64 478 1224 478 C1224 477.34 1224 476.68 1224 476 C1225.98 476 1227.96 476 1230 476 C1230 475.34 1230 474.68 1230 474 C1231.32 474 1232.64 474 1234 474 C1234 473.34 1234 472.68 1234 472 C1235.32 472 1236.64 472 1238 472 C1238 471.34 1238 470.68 1238 470 C1239.32 470 1240.64 470 1242 470 C1242 469.34 1242 468.68 1242 468 C1243.98 468 1245.96 468 1248 468 C1248 467.34 1248 466.68 1248 466 C1249.32 466 1250.64 466 1252 466 C1252 465.34 1252 464.68 1252 464 C1253.32 464 1254.64 464 1256 464 C1256 463.34 1256 462.68 1256 462 C1257.32 462 1258.64 462 1260 462 C1260 461.34 1260 460.68 1260 460 C1261.32 460 1262.64 460 1264 460 C1264 459.34 1264 458.68 1264 458 C1265.32 458 1266.64 458 1268 458 C1268 457.34 1268 456.68 1268 456 C1269.32 456 1270.64 456 1272 456 C1272 455.34 1272 454.68 1272 454 C1273.32 454 1274.64 454 1276 454 C1276 453.34 1276 452.68 1276 452 C1277.32 452 1278.64 452 1280 452 C1280 451.34 1280 450.68 1280 450 C1281.32 450 1282.64 450 1284 450 C1284 449.34 1284 448.68 1284 448 C1285.32 448 1286.64 448 1288 448 C1288 447.34 1288 446.68 1288 446 C1289.32 446 1290.64 446 1292 446 C1292 445.34 1292 444.68 1292 444 C1293.32 444 1294.64 444 1296 444 C1296 443.34 1296 442.68 1296 442 C1297.32 442 1298.64 442 1300 442 C1300 441.34 1300 440.68 1300 440 C1301.32 440 1302.64 440 1304 440 C1304 439.34 1304 438.68 1304 438 C1305.32 438 1306.64 438 1308 438 C1308 437.34 1308 436.68 1308 436 C1308.66 436 1309.32 436 1310 436 C1310 435.34 1310 434.68 1310 434 C1311.32 434 1312.64 434 1314 434 C1314 433.34 1314 432.68 1314 432 C1315.32 432 1316.64 432 1318 432 C1318 431.34 1318 430.68 1318 430 C1319.32 430 1320.64 430 1322 430 C1322 429.34 1322 428.68 1322 428 C1323.32 428 1324.64 428 1326 428 C1326 427.34 1326 426.68 1326 426 C1327.32 426 1328.64 426 1330 426 C1330 425.34 1330 424.68 1330 424 C1330.66 424 1331.32 424 1332 424 C1332 423.34 1332 422.68 1332 422 C1333.32 422 1334.64 422 1336 422 C1336 421.34 1336 420.68 1336 420 C1337.32 420 1338.64 420 1340 420 C1340 419.34 1340 418.68 1340 418 C1341.32 418 1342.64 418 1344 418 C1344 417.34 1344 416.68 1344 416 C1345.32 416 1346.64 416 1348 416 C1348 415.34 1348 414.68 1348 414 C1348.66 414 1349.32 414 1350 414 C1350 413.34 1350 412.68 1350 412 C1351.32 412 1352.64 412 1354 412 C1354 411.34 1354 410.68 1354 410 C1355.32 410 1356.64 410 1358 410 C1358 409.34 1358 408.68 1358 408 C1359.32 408 1360.64 408 1362 408 C1362 407.34 1362 406.68 1362 406 C1362.66 406 1363.32 406 1364 406 C1364 405.34 1364 404.68 1364 404 C1365.32 404 1366.64 404 1368 404 C1368 403.34 1368 402.68 1368 402 C1369.32 402 1370.64 402 1372 402 C1372 401.34 1372 400.68 1372 400 C1373.32 400 1374.64 400 1376 400 C1376 399.34 1376 398.68 1376 398 C1376.66 398 1377.32 398 1378 398 C1378 397.34 1378 396.68 1378 396 C1379.32 396 1380.64 396 1382 396 C1382 395.34 1382 394.68 1382 394 C1383.32 394 1384.64 394 1386 394 C1386 393.34 1386 392.68 1386 392 C1386.66 392 1387.32 392 1388 392 C1388 391.34 1388 390.68 1388 390 C1389.32 390 1390.64 390 1392 390 C1392 389.34 1392 388.68 1392 388 C1393.32 388 1394.64 388 1396 388 C1396 387.34 1396 386.68 1396 386 C1397.32 386 1398.64 386 1400 386 C1400 385.34 1400 384.68 1400 384 C1400.66 384 1401.32 384 1402 384 C1402 383.34 1402 382.68 1402 382 C1403.32 382 1404.64 382 1406 382 C1406 381.34 1406 380.68 1406 380 C1407.32 380 1408.64 380 1410 380 C1410 379.34 1410 378.68 1410 378 C1410.66 378 1411.32 378 1412 378 C1412 377.34 1412 376.68 1412 376 C1413.32 376 1414.64 376 1416 376 C1416 375.34 1416 374.68 1416 374 C1417.32 374 1418.64 374 1420 374 C1420 373.34 1420 372.68 1420 372 C1420.66 372 1421.32 372 1422 372 C1422 371.34 1422 370.68 1422 370 C1423.32 370 1424.64 370 1426 370 C1426 369.34 1426 368.68 1426 368 C1427.32 368 1428.64 368 1430 368 C1430 367.34 1430 366.68 1430 366 C1430.66 366 1431.32 366 1432 366 C1432 365.34 1432 364.68 1432 364 C1433.32 364 1434.64 364 1436 364 C1436 363.34 1436 362.68 1436 362 C1437.32 362 1438.64 362 1440 362 C1440 361.34 1440 360.68 1440 360 C1440.66 360 1441.32 360 1442 360 C1442 359.34 1442 358.68 1442 358 C1443.32 358 1444.64 358 1446 358 C1446 357.34 1446 356.68 1446 356 C1447.32 356 1448.64 356 1450 356 C1450 355.34 1450 354.68 1450 354 C1450.66 354 1451.32 354 1452 354 C1452 353.34 1452 352.68 1452 352 C1453.32 352 1454.64 352 1456 352 C1456 351.34 1456 350.68 1456 350 C1457.32 350 1458.64 350 1460 350 C1460 349.34 1460 348.68 1460 348 C1460.66 348 1461.32 348 1462 348 C1462 347.34 1462 346.68 1462 346 C1463.32 346 1464.64 346 1466 346 C1466 345.34 1466 344.68 1466 344 C1467.32 344 1468.64 344 1470 344 C1470 343.34 1470 342.68 1470 342 C1470.66 342 1471.32 342 1472 342 C1472 341.34 1472 340.68 1472 340 C1473.32 340 1474.64 340 1476 340 C1476 339.34 1476 338.68 1476 338 C1477.32 338 1478.64 338 1480 338 C1480 337.34 1480 336.68 1480 336 C1480.66 336 1481.32 336 1482 336 C1482 335.34 1482 334.68 1482 334 C1483.32 334 1484.64 334 1486 334 C1486 333.34 1486 332.68 1486 332 C1487.32 332 1488.64 332 1490 332 C1490 331.34 1490 330.68 1490 330 C1491.32 330 1492.64 330 1494 330 C1494 329.34 1494 328.68 1494 328 C1494.66 328 1495.32 328 1496 328 C1496 327.34 1496 326.68 1496 326 C1497.32 326 1498.64 326 1500 326 C1500 325.34 1500 324.68 1500 324 C1501.32 324 1502.64 324 1504 324 C1504 323.34 1504 322.68 1504 322 C1504.66 322 1505.32 322 1506 322 C1506 321.34 1506 320.68 1506 320 C1507.32 320 1508.64 320 1510 320 C1510 319.34 1510 318.68 1510 318 C1513 316 1513 316 1516 316 C1516 315.34 1516 314.68 1516 314 C1517.32 314 1518.64 314 1520 314 C1520 313.34 1520 312.68 1520 312 C1521.32 312 1522.64 312 1524 312 C1524 311.34 1524 310.68 1524 310 C1524.66 310 1525.32 310 1526 310 C1526 309.34 1526 308.68 1526 308 C1527.32 308 1528.64 308 1530 308 C1530 307.34 1530 306.68 1530 306 C1531.32 306 1532.64 306 1534 306 C1534 305.34 1534 304.68 1534 304 C1534.66 304 1535.32 304 1536 304 C1536 303.34 1536 302.68 1536 302 C1537.32 302 1538.64 302 1540 302 C1540 301.34 1540 300.68 1540 300 C1541.32 300 1542.64 300 1544 300 C1544 299.34 1544 298.68 1544 298 C1544.66 298 1545.32 298 1546 298 C1546 297.34 1546 296.68 1546 296 C1547.32 296 1548.64 296 1550 296 C1550 295.34 1550 294.68 1550 294 C1551.32 294 1552.64 294 1554 294 C1554 293.34 1554 292.68 1554 292 C1555.32 292 1556.64 292 1558 292 C1558 291.34 1558 290.68 1558 290 C1558.66 290 1559.32 290 1560 290 C1560 289.34 1560 288.68 1560 288 C1561.32 288 1562.64 288 1564 288 C1564 287.34 1564 286.68 1564 286 C1565.32 286 1566.64 286 1568 286 C1568 285.34 1568 284.68 1568 284 C1568.66 284 1569.32 284 1570 284 C1570 283.34 1570 282.68 1570 282 C1571.32 282 1572.64 282 1574 282 C1574 281.34 1574 280.68 1574 280 C1575.32 280 1576.64 280 1578 280 C1578 279.34 1578 278.68 1578 278 C1579.32 278 1580.64 278 1582 278 C1582 277.34 1582 276.68 1582 276 C1582.66 276 1583.32 276 1584 276 C1584 275.34 1584 274.68 1584 274 C1585.32 274 1586.64 274 1588 274 C1588 273.34 1588 272.68 1588 272 C1589.32 272 1590.64 272 1592 272 C1592 271.34 1592 270.68 1592 270 C1593.32 270 1594.64 270 1596 270 C1596 269.34 1596 268.68 1596 268 C1596.66 268 1597.32 268 1598 268 C1598 267.34 1598 266.68 1598 266 C1599.32 266 1600.64 266 1602 266 C1602 265.34 1602 264.68 1602 264 C1603.32 264 1604.64 264 1606 264 C1606 263.34 1606 262.68 1606 262 C1606.66 262 1607.32 262 1608 262 C1608 261.34 1608 260.68 1608 260 C1609.32 260 1610.64 260 1612 260 C1612 259.34 1612 258.68 1612 258 C1613.32 258 1614.64 258 1616 258 C1616 257.34 1616 256.68 1616 256 C1617.32 256 1618.64 256 1620 256 C1620 255.34 1620 254.68 1620 254 C1620.66 254 1621.32 254 1622 254 C1622 253.34 1622 252.68 1622 252 C1623.32 252 1624.64 252 1626 252 C1626 251.34 1626 250.68 1626 250 C1627.32 250 1628.64 250 1630 250 C1630 249.34 1630 248.68 1630 248 C1631.32 248 1632.64 248 1634 248 C1634 247.34 1634 246.68 1634 246 C1634.66 246 1635.32 246 1636 246 C1636 245.34 1636 244.68 1636 244 C1637.32 244 1638.64 244 1640 244 C1640 243.34 1640 242.68 1640 242 C1641.32 242 1642.64 242 1644 242 C1644 241.34 1644 240.68 1644 240 C1645.32 240 1646.64 240 1648 240 C1648 239.34 1648 238.68 1648 238 C1648.66 238 1649.32 238 1650 238 C1650 237.34 1650 236.68 1650 236 C1651.32 236 1652.64 236 1654 236 C1654 235.34 1654 234.68 1654 234 C1655.32 234 1656.64 234 1658 234 C1658 233.34 1658 232.68 1658 232 C1659.32 232 1660.64 232 1662 232 C1662 231.34 1662 230.68 1662 230 C1663.32 230 1664.64 230 1666 230 C1666 229.34 1666 228.68 1666 228 C1666.66 228 1667.32 228 1668 228 C1668 227.34 1668 226.68 1668 226 C1669.32 226 1670.64 226 1672 226 C1672 225.34 1672 224.68 1672 224 C1673.32 224 1674.64 224 1676 224 C1676 223.34 1676 222.68 1676 222 C1677.32 222 1678.64 222 1680 222 C1680 221.34 1680 220.68 1680 220 C1681.32 220 1682.64 220 1684 220 C1684 219.34 1684 218.68 1684 218 C1684.66 218 1685.32 218 1686 218 C1686 217.34 1686 216.68 1686 216 C1687.32 216 1688.64 216 1690 216 C1690 215.34 1690 214.68 1690 214 C1691.32 214 1692.64 214 1694 214 C1694 213.34 1694 212.68 1694 212 C1695.32 212 1696.64 212 1698 212 C1698 211.34 1698 210.68 1698 210 C1699.32 210 1700.64 210 1702 210 C1702 209.34 1702 208.68 1702 208 C1702.66 208 1703.32 208 1704 208 C1704 207.34 1704 206.68 1704 206 C1705.32 206 1706.64 206 1708 206 C1708 205.34 1708 204.68 1708 204 C1709.32 204 1710.64 204 1712 204 C1712 203.34 1712 202.68 1712 202 C1713.32 202 1714.64 202 1716 202 C1716 201.34 1716 200.68 1716 200 C1717.32 200 1718.64 200 1720 200 C1720 199.34 1720 198.68 1720 198 C1721.32 198 1722.64 198 1724 198 C1724 197.34 1724 196.68 1724 196 C1724.66 196 1725.32 196 1726 196 C1726 195.34 1726 194.68 1726 194 C1727.32 194 1728.64 194 1730 194 C1730 193.34 1730 192.68 1730 192 C1731.32 192 1732.64 192 1734 192 C1734 191.34 1734 190.68 1734 190 C1735.32 190 1736.64 190 1738 190 C1738 189.34 1738 188.68 1738 188 C1739.32 188 1740.64 188 1742 188 C1742 187.34 1742 186.68 1742 186 C1743.32 186 1744.64 186 1746 186 C1746 185.34 1746 184.68 1746 184 C1747.32 184 1748.64 184 1750 184 C1750 183.34 1750 182.68 1750 182 C1751.32 182 1752.64 182 1754 182 C1754 181.34 1754 180.68 1754 180 C1755.32 180 1756.64 180 1758 180 C1758 179.34 1758 178.68 1758 178 C1759.32 178 1760.64 178 1762 178 C1762 177.34 1762 176.68 1762 176 C1762.66 176 1763.32 176 1764 176 C1764 175.34 1764 174.68 1764 174 C1765.32 174 1766.64 174 1768 174 C1768 173.34 1768 172.68 1768 172 C1769.32 172 1770.64 172 1772 172 C1772 171.34 1772 170.68 1772 170 C1773.32 170 1774.64 170 1776 170 C1776 169.34 1776 168.68 1776 168 C1777.32 168 1778.64 168 1780 168 C1780 167.34 1780 166.68 1780 166 C1781.32 166 1782.64 166 1784 166 C1784 165.34 1784 164.68 1784 164 C1785.32 164 1786.64 164 1788 164 C1788 163.34 1788 162.68 1788 162 C1789.32 162 1790.64 162 1792 162 C1792 161.34 1792 160.68 1792 160 C1793.32 160 1794.64 160 1796 160 C1796 159.34 1796 158.68 1796 158 C1797.32 158 1798.64 158 1800 158 C1800 157.34 1800 156.68 1800 156 C1801.65 156 1803.3 156 1805 156 C1805 444.09 1805 732.18 1805 1029 C89 1029 -1627 1029 -3395 1029 C-3395 324 -3395 324 -3394 322 C-3393.34 322 -3392.68 322 -3392 322 C-3392 320.68 -3392 319.36 -3392 318 C-3391.34 318 -3390.68 318 -3390 318 C-3390 317.34 -3390 316.68 -3390 316 C-3389.34 316 -3388.68 316 -3388 316 C-3388 315.34 -3388 314.68 -3388 314 C-3387.34 314 -3386.68 314 -3386 314 C-3386 312.68 -3386 311.36 -3386 310 C-3385.34 310 -3384.68 310 -3384 310 C-3384 309.34 -3384 308.68 -3384 308 C-3383.34 308 -3382.68 308 -3382 308 C-3382 307.34 -3382 306.68 -3382 306 C-3381.34 306 -3380.68 306 -3380 306 C-3380 305.34 -3380 304.68 -3380 304 C-3379.34 304 -3378.68 304 -3378 304 C-3378 303.34 -3378 302.68 -3378 302 C-3377.34 302 -3376.68 302 -3376 302 C-3376 300.68 -3376 299.36 -3376 298 C-3375.34 298 -3374.68 298 -3374 298 C-3374 297.34 -3374 296.68 -3374 296 C-3373.34 296 -3372.68 296 -3372 296 C-3372 295.34 -3372 294.68 -3372 294 C-3371.34 294 -3370.68 294 -3370 294 C-3370 293.34 -3370 292.68 -3370 292 C-3369.34 292 -3368.68 292 -3368 292 C-3368 291.34 -3368 290.68 -3368 290 C-3367.34 290 -3366.68 290 -3366 290 C-3366 289.34 -3366 288.68 -3366 288 C-3365.34 288 -3364.68 288 -3364 288 C-3364 287.34 -3364 286.68 -3364 286 C-3363.34 286 -3362.68 286 -3362 286 C-3362 285.34 -3362 284.68 -3362 284 C-3361.34 284 -3360.68 284 -3360 284 C-3360 283.34 -3360 282.68 -3360 282 C-3359.34 282 -3358.68 282 -3358 282 C-3358 281.34 -3358 280.68 -3358 280 C-3357.34 280 -3356.68 280 -3356 280 C-3356 279.34 -3356 278.68 -3356 278 C-3355.34 278 -3354.68 278 -3354 278 C-3354 277.34 -3354 276.68 -3354 276 C-3353.34 276 -3352.68 276 -3352 276 C-3352 275.34 -3352 274.68 -3352 274 C-3351.34 274 -3350.68 274 -3350 274 C-3350 273.34 -3350 272.68 -3350 272 C-3349.34 272 -3348.68 272 -3348 272 C-3348 271.34 -3348 270.68 -3348 270 C-3347.34 270 -3346.68 270 -3346 270 C-3346 269.34 -3346 268.68 -3346 268 C-3345.34 268 -3344.68 268 -3344 268 C-3344 267.34 -3344 266.68 -3344 266 C-3343.34 266 -3342.68 266 -3342 266 C-3342 265.34 -3342 264.68 -3342 264 C-3341.34 264 -3340.68 264 -3340 264 C-3340 263.34 -3340 262.68 -3340 262 C-3339.34 262 -3338.68 262 -3338 262 C-3338 261.34 -3338 260.68 -3338 260 C-3337.34 260 -3336.68 260 -3336 260 C-3336 259.34 -3336 258.68 -3336 258 C-3335.34 258 -3334.68 258 -3334 258 C-3334 257.34 -3334 256.68 -3334 256 C-3332.68 256 -3331.36 256 -3330 256 C-3330 255.34 -3330 254.68 -3330 254 C-3329.34 254 -3328.68 254 -3328 254 C-3328 253.34 -3328 252.68 -3328 252 C-3327.34 252 -3326.68 252 -3326 252 C-3326 251.34 -3326 250.68 -3326 250 C-3325.34 250 -3324.68 250 -3324 250 C-3324 249.34 -3324 248.68 -3324 248 C-3323.34 248 -3322.68 248 -3322 248 C-3322 247.34 -3322 246.68 -3322 246 C-3321.34 246 -3320.68 246 -3320 246 C-3320 245.34 -3320 244.68 -3320 244 C-3319.34 244 -3318.68 244 -3318 244 C-3318 243.34 -3318 242.68 -3318 242 C-3317.34 242 -3316.68 242 -3316 242 C-3316 241.34 -3316 240.68 -3316 240 C-3315.34 240 -3314.68 240 -3314 240 C-3314 239.34 -3314 238.68 -3314 238 C-3313.34 238 -3312.68 238 -3312 238 C-3312 237.34 -3312 236.68 -3312 236 C-3311.34 236 -3310.68 236 -3310 236 C-3310 235.34 -3310 234.68 -3310 234 C-3309.34 234 -3308.68 234 -3308 234 C-3308 233.34 -3308 232.68 -3308 232 C-3306.68 232 -3305.36 232 -3304 232 C-3304 231.34 -3304 230.68 -3304 230 C-3303.34 230 -3302.68 230 -3302 230 C-3302 229.34 -3302 228.68 -3302 228 C-3301.34 228 -3300.68 228 -3300 228 C-3300 227.34 -3300 226.68 -3300 226 C-3299.34 226 -3298.68 226 -3298 226 C-3298 225.34 -3298 224.68 -3298 224 C-3297.34 224 -3296.68 224 -3296 224 C-3296 223.34 -3296 222.68 -3296 222 C-3294.68 222 -3293.36 222 -3292 222 C-3292 221.34 -3292 220.68 -3292 220 C-3291.34 220 -3290.68 220 -3290 220 C-3290 219.34 -3290 218.68 -3290 218 C-3289.34 218 -3288.68 218 -3288 218 C-3288 217.34 -3288 216.68 -3288 216 C-3287.34 216 -3286.68 216 -3286 216 C-3286 215.34 -3286 214.68 -3286 214 C-3284.68 214 -3283.36 214 -3282 214 C-3282 213.34 -3282 212.68 -3282 212 C-3281.34 212 -3280.68 212 -3280 212 C-3280 211.34 -3280 210.68 -3280 210 C-3279.34 210 -3278.68 210 -3278 210 C-3278 209.34 -3278 208.68 -3278 208 C-3276.68 208 -3275.36 208 -3274 208 C-3274 207.34 -3274 206.68 -3274 206 C-3273.34 206 -3272.68 206 -3272 206 C-3272 205.34 -3272 204.68 -3272 204 C-3271.34 204 -3270.68 204 -3270 204 C-3270 203.34 -3270 202.68 -3270 202 C-3268.68 202 -3267.36 202 -3266 202 C-3266 201.34 -3266 200.68 -3266 200 C-3265.34 200 -3264.68 200 -3264 200 C-3264 199.34 -3264 198.68 -3264 198 C-3262.68 198 -3261.36 198 -3260 198 C-3260 197.34 -3260 196.68 -3260 196 C-3259.34 196 -3258.68 196 -3258 196 C-3258 195.34 -3258 194.68 -3258 194 C-3256.68 194 -3255.36 194 -3254 194 C-3254 193.34 -3254 192.68 -3254 192 C-3252.68 192 -3251.36 192 -3250 192 C-3250 191.34 -3250 190.68 -3250 190 C-3249.34 190 -3248.68 190 -3248 190 C-3248 189.34 -3248 188.68 -3248 188 C-3246.68 188 -3245.36 188 -3244 188 C-3244 187.34 -3244 186.68 -3244 186 C-3242.68 186 -3241.36 186 -3240 186 C-3240 185.34 -3240 184.68 -3240 184 C-3239.34 184 -3238.68 184 -3238 184 C-3238 183.34 -3238 182.68 -3238 182 C-3236.68 182 -3235.36 182 -3234 182 C-3234 181.34 -3234 180.68 -3234 180 C-3232.68 180 -3231.36 180 -3230 180 C-3230 179.34 -3230 178.68 -3230 178 C-3228.68 178 -3227.36 178 -3226 178 C-3226 177.34 -3226 176.68 -3226 176 C-3225.34 176 -3224.68 176 -3224 176 C-3224 175.34 -3224 174.68 -3224 174 C-3222.68 174 -3221.36 174 -3220 174 C-3220 173.34 -3220 172.68 -3220 172 C-3218.68 172 -3217.36 172 -3216 172 C-3216 171.34 -3216 170.68 -3216 170 C-3215.34 170 -3214.68 170 -3214 170 C-3214 169.34 -3214 168.68 -3214 168 C-3212.68 168 -3211.36 168 -3210 168 C-3210 167.34 -3210 166.68 -3210 166 C-3208.68 166 -3207.36 166 -3206 166 C-3206 165.34 -3206 164.68 -3206 164 C-3204.68 164 -3203.36 164 -3202 164 C-3202 163.34 -3202 162.68 -3202 162 C-3199 160 -3199 160 -3196 160 C-3196 159.34 -3196 158.68 -3196 158 C-3194.68 158 -3193.36 158 -3192 158 C-3192 157.34 -3192 156.68 -3192 156 C-3190.68 156 -3189.36 156 -3188 156 C-3188 155.34 -3188 154.68 -3188 154 C-3186.68 154 -3185.36 154 -3184 154 C-3184 153.34 -3184 152.68 -3184 152 C-3182.68 152 -3181.36 152 -3180 152 C-3180 151.34 -3180 150.68 -3180 150 C-3178.68 150 -3177.36 150 -3176 150 C-3176 149.34 -3176 148.68 -3176 148 C-3174.68 148 -3173.36 148 -3172 148 C-3172 147.34 -3172 146.68 -3172 146 C-3170.68 146 -3169.36 146 -3168 146 C-3168 145.34 -3168 144.68 -3168 144 C-3166.02 144 -3164.04 144 -3162 144 C-3162 143.34 -3162 142.68 -3162 142 C-3160.68 142 -3159.36 142 -3158 142 C-3158 141.34 -3158 140.68 -3158 140 C-3156.68 140 -3155.36 140 -3154 140 C-3154 139.34 -3154 138.68 -3154 138 C-3152.02 138 -3150.04 138 -3148 138 C-3148 137.34 -3148 136.68 -3148 136 C-3146.68 136 -3145.36 136 -3144 136 C-3144 135.34 -3144 134.68 -3144 134 C-3142.68 134 -3141.36 134 -3140 134 C-3140 133.34 -3140 132.68 -3140 132 C-3138.68 132 -3137.36 132 -3136 132 C-3136 131.34 -3136 130.68 -3136 130 C-3134.02 130 -3132.04 130 -3130 130 C-3130 129.34 -3130 128.68 -3130 128 C-3128.68 128 -3127.36 128 -3126 128 C-3126 127.34 -3126 126.68 -3126 126 C-3124.68 126 -3123.36 126 -3122 126 C-3122 125.34 -3122 124.68 -3122 124 C-3120.68 124 -3119.36 124 -3118 124 C-3118 123.34 -3118 122.68 -3118 122 C-3116.68 122 -3115.36 122 -3114 122 C-3114 121.34 -3114 120.68 -3114 120 C-3112.02 120 -3110.04 120 -3108 120 C-3108 119.34 -3108 118.68 -3108 118 C-3106.68 118 -3105.36 118 -3104 118 C-3104 117.34 -3104 116.68 -3104 116 C-3102.68 116 -3101.36 116 -3100 116 C-3100 115.34 -3100 114.68 -3100 114 C-3098.02 114 -3096.04 114 -3094 114 C-3094 113.34 -3094 112.68 -3094 112 C-3092.68 112 -3091.36 112 -3090 112 C-3090 111.34 -3090 110.68 -3090 110 C-3088.02 110 -3086.04 110 -3084 110 C-3084 109.34 -3084 108.68 -3084 108 C-3082.68 108 -3081.36 108 -3080 108 C-3080 107.34 -3080 106.68 -3080 106 C-3078.02 106 -3076.04 106 -3074 106 C-3074 105.34 -3074 104.68 -3074 104 C-3072.68 104 -3071.36 104 -3070 104 C-3070 103.34 -3070 102.68 -3070 102 C-3068.02 102 -3066.04 102 -3064 102 C-3064 101.34 -3064 100.68 -3064 100 C-3062.02 100 -3060.04 100 -3058 100 C-3058 99.34 -3058 98.68 -3058 98 C-3056.68 98 -3055.36 98 -3054 98 C-3054 97.34 -3054 96.68 -3054 96 C-3052.02 96 -3050.04 96 -3048 96 C-3048 95.34 -3048 94.68 -3048 94 C-3046.02 94 -3044.04 94 -3042 94 C-3042 93.34 -3042 92.68 -3042 92 C-3040.02 92 -3038.04 92 -3036 92 C-3036 91.34 -3036 90.68 -3036 90 C-3034.02 90 -3032.04 90 -3030 90 C-3030 89.34 -3030 88.68 -3030 88 C-3028.02 88 -3026.04 88 -3024 88 C-3024 87.34 -3024 86.68 -3024 86 C-3022.02 86 -3020.04 86 -3018 86 C-3018 85.34 -3018 84.68 -3018 84 C-3015.36 84 -3012.72 84 -3010 84 C-3010 83.34 -3010 82.68 -3010 82 C-3008.02 82 -3006.04 82 -3004 82 C-3004 81.34 -3004 80.68 -3004 80 C-3002.02 80 -3000.04 80 -2998 80 C-2998 79.34 -2998 78.68 -2998 78 C-2995.36 78 -2992.72 78 -2990 78 C-2990 77.34 -2990 76.68 -2990 76 C-2987.36 76 -2984.72 76 -2982 76 C-2982 75.34 -2982 74.68 -2982 74 C-2979.36 74 -2976.72 74 -2974 74 C-2974 73.34 -2974 72.68 -2974 72 C-2971.36 72 -2968.72 72 -2966 72 C-2966 71.34 -2966 70.68 -2966 70 C-2963.36 70 -2960.72 70 -2958 70 C-2958 69.34 -2958 68.68 -2958 68 C-2954.7 68 -2951.4 68 -2948 68 C-2948 67.34 -2948 66.68 -2948 66 C-2945.36 66 -2942.72 66 -2940 66 C-2940 65.34 -2940 64.68 -2940 64 C-2936.04 64 -2932.08 64 -2928 64 C-2928 63.34 -2928 62.68 -2928 62 C-2924.7 62 -2921.4 62 -2918 62 C-2918 61.34 -2918 60.68 -2918 60 C-2913.38 60 -2908.76 60 -2904 60 C-2904 59.34 -2904 58.68 -2904 58 C-2899.38 58 -2894.76 58 -2890 58 C-2890 57.34 -2890 56.68 -2890 56 C-2884.72 56 -2879.44 56 -2874 56 C-2874 55.34 -2874 54.68 -2874 54 C-2867.4 54 -2860.8 54 -2854 54 C-2854 53.34 -2854 52.68 -2854 52 C-2841.46 52 -2828.92 52 -2816 52 C-2816 51.34 -2816 50.68 -2816 50 C-2805.11 50 -2794.22 50 -2783 50 C-2783 50.66 -2783 51.32 -2783 52 C-2771.12 52 -2759.24 52 -2747 52 C-2747 52.66 -2747 53.32 -2747 54 C-2741.06 54 -2735.12 54 -2729 54 C-2729 54.66 -2729 55.32 -2729 56 C-2724.38 56 -2719.76 56 -2715 56 C-2715 56.66 -2715 57.32 -2715 58 C-2711.04 58 -2707.08 58 -2703 58 C-2703 58.66 -2703 59.32 -2703 60 C-2699.04 60 -2695.08 60 -2691 60 C-2691 60.66 -2691 61.32 -2691 62 C-2687.7 62 -2684.4 62 -2681 62 C-2681 62.66 -2681 63.32 -2681 64 C-2678.36 64 -2675.72 64 -2673 64 C-2673 64.66 -2673 65.32 -2673 66 C-2670.36 66 -2667.72 66 -2665 66 C-2665 66.66 -2665 67.32 -2665 68 C-2662.36 68 -2659.72 68 -2657 68 C-2657 68.66 -2657 69.32 -2657 70 C-2654.36 70 -2651.72 70 -2649 70 C-2649 70.66 -2649 71.32 -2649 72 C-2647.02 72 -2645.04 72 -2643 72 C-2643 72.66 -2643 73.32 -2643 74 C-2640.36 74 -2637.72 74 -2635 74 C-2635 74.66 -2635 75.32 -2635 76 C-2633.02 76 -2631.04 76 -2629 76 C-2629 76.66 -2629 77.32 -2629 78 C-2627.02 78 -2625.04 78 -2623 78 C-2623 78.66 -2623 79.32 -2623 80 C-2621.02 80 -2619.04 80 -2617 80 C-2617 80.66 -2617 81.32 -2617 82 C-2615.02 82 -2613.04 82 -2611 82 C-2611 82.66 -2611 83.32 -2611 84 C-2609.02 84 -2607.04 84 -2605 84 C-2605 84.66 -2605 85.32 -2605 86 C-2603.68 86 -2602.36 86 -2601 86 C-2601 86.66 -2601 87.32 -2601 88 C-2599.02 88 -2597.04 88 -2595 88 C-2595 88.66 -2595 89.32 -2595 90 C-2593.68 90 -2592.36 90 -2591 90 C-2591 90.66 -2591 91.32 -2591 92 C-2589.02 92 -2587.04 92 -2585 92 C-2585 92.66 -2585 93.32 -2585 94 C-2583.68 94 -2582.36 94 -2581 94 C-2581 94.66 -2581 95.32 -2581 96 C-2579.68 96 -2578.36 96 -2577 96 C-2577 96.66 -2577 97.32 -2577 98 C-2575.02 98 -2573.04 98 -2571 98 C-2571 98.66 -2571 99.32 -2571 100 C-2569.68 100 -2568.36 100 -2567 100 C-2567 100.66 -2567 101.32 -2567 102 C-2565.68 102 -2564.36 102 -2563 102 C-2563 102.66 -2563 103.32 -2563 104 C-2561.68 104 -2560.36 104 -2559 104 C-2559 104.66 -2559 105.32 -2559 106 C-2557.68 106 -2556.36 106 -2555 106 C-2555 106.66 -2555 107.32 -2555 108 C-2553.68 108 -2552.36 108 -2551 108 C-2551 108.66 -2551 109.32 -2551 110 C-2549.68 110 -2548.36 110 -2547 110 C-2547 110.66 -2547 111.32 -2547 112 C-2545.68 112 -2544.36 112 -2543 112 C-2543 112.66 -2543 113.32 -2543 114 C-2541.68 114 -2540.36 114 -2539 114 C-2539 114.66 -2539 115.32 -2539 116 C-2537.68 116 -2536.36 116 -2535 116 C-2535 116.66 -2535 117.32 -2535 118 C-2533.68 118 -2532.36 118 -2531 118 C-2531 118.66 -2531 119.32 -2531 120 C-2529.68 120 -2528.36 120 -2527 120 C-2527 120.66 -2527 121.32 -2527 122 C-2526.34 122 -2525.68 122 -2525 122 C-2525 122.66 -2525 123.32 -2525 124 C-2523.68 124 -2522.36 124 -2521 124 C-2521 124.66 -2521 125.32 -2521 126 C-2519.68 126 -2518.36 126 -2517 126 C-2517 126.66 -2517 127.32 -2517 128 C-2515.68 128 -2514.36 128 -2513 128 C-2513 128.66 -2513 129.32 -2513 130 C-2512.34 130 -2511.68 130 -2511 130 C-2511 130.66 -2511 131.32 -2511 132 C-2509.68 132 -2508.36 132 -2507 132 C-2507 132.66 -2507 133.32 -2507 134 C-2506.34 134 -2505.68 134 -2505 134 C-2505 134.66 -2505 135.32 -2505 136 C-2503.68 136 -2502.36 136 -2501 136 C-2501 136.66 -2501 137.32 -2501 138 C-2499.68 138 -2498.36 138 -2497 138 C-2497 138.66 -2497 139.32 -2497 140 C-2496.34 140 -2495.68 140 -2495 140 C-2495 140.66 -2495 141.32 -2495 142 C-2493.68 142 -2492.36 142 -2491 142 C-2491 142.66 -2491 143.32 -2491 144 C-2490.34 144 -2489.68 144 -2489 144 C-2489 144.66 -2489 145.32 -2489 146 C-2487.68 146 -2486.36 146 -2485 146 C-2485 146.66 -2485 147.32 -2485 148 C-2484.34 148 -2483.68 148 -2483 148 C-2483 148.66 -2483 149.32 -2483 150 C-2481.68 150 -2480.36 150 -2479 150 C-2479 150.66 -2479 151.32 -2479 152 C-2478.34 152 -2477.68 152 -2477 152 C-2477 152.66 -2477 153.32 -2477 154 C-2476.34 154 -2475.68 154 -2475 154 C-2475 154.66 -2475 155.32 -2475 156 C-2473.68 156 -2472.36 156 -2471 156 C-2471 156.66 -2471 157.32 -2471 158 C-2470.34 158 -2469.68 158 -2469 158 C-2469 158.66 -2469 159.32 -2469 160 C-2467.68 160 -2466.36 160 -2465 160 C-2465 160.66 -2465 161.32 -2465 162 C-2464.34 162 -2463.68 162 -2463 162 C-2463 162.66 -2463 163.32 -2463 164 C-2462.34 164 -2461.68 164 -2461 164 C-2461 164.66 -2461 165.32 -2461 166 C-2459.68 166 -2458.36 166 -2457 166 C-2457 166.66 -2457 167.32 -2457 168 C-2456.34 168 -2455.68 168 -2455 168 C-2455 168.66 -2455 169.32 -2455 170 C-2454.34 170 -2453.68 170 -2453 170 C-2453 170.66 -2453 171.32 -2453 172 C-2451.68 172 -2450.36 172 -2449 172 C-2449 172.66 -2449 173.32 -2449 174 C-2448.34 174 -2447.68 174 -2447 174 C-2447 174.66 -2447 175.32 -2447 176 C-2446.34 176 -2445.68 176 -2445 176 C-2445 176.66 -2445 177.32 -2445 178 C-2444.34 178 -2443.68 178 -2443 178 C-2443 178.66 -2443 179.32 -2443 180 C-2441.68 180 -2440.36 180 -2439 180 C-2439 180.66 -2439 181.32 -2439 182 C-2438.34 182 -2437.68 182 -2437 182 C-2437 182.66 -2437 183.32 -2437 184 C-2436.34 184 -2435.68 184 -2435 184 C-2435 184.66 -2435 185.32 -2435 186 C-2434.34 186 -2433.68 186 -2433 186 C-2433 186.66 -2433 187.32 -2433 188 C-2432.34 188 -2431.68 188 -2431 188 C-2431 188.66 -2431 189.32 -2431 190 C-2429.68 190 -2428.36 190 -2427 190 C-2427 190.66 -2427 191.32 -2427 192 C-2426.34 192 -2425.68 192 -2425 192 C-2425 192.66 -2425 193.32 -2425 194 C-2424.34 194 -2423.68 194 -2423 194 C-2423 194.66 -2423 195.32 -2423 196 C-2422.34 196 -2421.68 196 -2421 196 C-2421 196.66 -2421 197.32 -2421 198 C-2420.34 198 -2419.68 198 -2419 198 C-2419 198.66 -2419 199.32 -2419 200 C-2418.34 200 -2417.68 200 -2417 200 C-2417 200.66 -2417 201.32 -2417 202 C-2415.68 202 -2414.36 202 -2413 202 C-2413 202.66 -2413 203.32 -2413 204 C-2412.34 204 -2411.68 204 -2411 204 C-2411 204.66 -2411 205.32 -2411 206 C-2410.34 206 -2409.68 206 -2409 206 C-2409 206.66 -2409 207.32 -2409 208 C-2408.34 208 -2407.68 208 -2407 208 C-2407 208.66 -2407 209.32 -2407 210 C-2406.34 210 -2405.68 210 -2405 210 C-2405 210.66 -2405 211.32 -2405 212 C-2404.34 212 -2403.68 212 -2403 212 C-2403 212.66 -2403 213.32 -2403 214 C-2402.34 214 -2401.68 214 -2401 214 C-2401 214.66 -2401 215.32 -2401 216 C-2400.34 216 -2399.68 216 -2399 216 C-2399 216.66 -2399 217.32 -2399 218 C-2398.34 218 -2397.68 218 -2397 218 C-2397 218.66 -2397 219.32 -2397 220 C-2396.34 220 -2395.68 220 -2395 220 C-2395 220.66 -2395 221.32 -2395 222 C-2393.68 222 -2392.36 222 -2391 222 C-2391 222.66 -2391 223.32 -2391 224 C-2390.34 224 -2389.68 224 -2389 224 C-2389 224.66 -2389 225.32 -2389 226 C-2388.34 226 -2387.68 226 -2387 226 C-2387 226.66 -2387 227.32 -2387 228 C-2386.34 228 -2385.68 228 -2385 228 C-2385 228.66 -2385 229.32 -2385 230 C-2384.34 230 -2383.68 230 -2383 230 C-2383 230.66 -2383 231.32 -2383 232 C-2382.34 232 -2381.68 232 -2381 232 C-2381 232.66 -2381 233.32 -2381 234 C-2380.34 234 -2379.68 234 -2379 234 C-2379 234.66 -2379 235.32 -2379 236 C-2378.34 236 -2377.68 236 -2377 236 C-2377 236.66 -2377 237.32 -2377 238 C-2376.34 238 -2375.68 238 -2375 238 C-2375 238.66 -2375 239.32 -2375 240 C-2374.34 240 -2373.68 240 -2373 240 C-2373 240.66 -2373 241.32 -2373 242 C-2372.34 242 -2371.68 242 -2371 242 C-2371 242.66 -2371 243.32 -2371 244 C-2370.34 244 -2369.68 244 -2369 244 C-2369 244.66 -2369 245.32 -2369 246 C-2368.34 246 -2367.68 246 -2367 246 C-2367 246.66 -2367 247.32 -2367 248 C-2366.34 248 -2365.68 248 -2365 248 C-2365 248.66 -2365 249.32 -2365 250 C-2364.34 250 -2363.68 250 -2363 250 C-2363 250.66 -2363 251.32 -2363 252 C-2362.34 252 -2361.68 252 -2361 252 C-2361 252.66 -2361 253.32 -2361 254 C-2360.34 254 -2359.68 254 -2359 254 C-2359 254.66 -2359 255.32 -2359 256 C-2358.34 256 -2357.68 256 -2357 256 C-2357 256.66 -2357 257.32 -2357 258 C-2356.34 258 -2355.68 258 -2355 258 C-2355 258.66 -2355 259.32 -2355 260 C-2354.34 260 -2353.68 260 -2353 260 C-2353 260.66 -2353 261.32 -2353 262 C-2352.34 262 -2351.68 262 -2351 262 C-2351 262.66 -2351 263.32 -2351 264 C-2350.34 264 -2349.68 264 -2349 264 C-2349 264.66 -2349 265.32 -2349 266 C-2348.34 266 -2347.68 266 -2347 266 C-2347 266.66 -2347 267.32 -2347 268 C-2346.34 268 -2345.68 268 -2345 268 C-2345 268.66 -2345 269.32 -2345 270 C-2344.34 270 -2343.68 270 -2343 270 C-2343 270.66 -2343 271.32 -2343 272 C-2342.34 272 -2341.68 272 -2341 272 C-2341 272.66 -2341 273.32 -2341 274 C-2340.34 274 -2339.68 274 -2339 274 C-2339 274.66 -2339 275.32 -2339 276 C-2338.34 276 -2337.68 276 -2337 276 C-2337 276.66 -2337 277.32 -2337 278 C-2336.34 278 -2335.68 278 -2335 278 C-2335 278.66 -2335 279.32 -2335 280 C-2334.34 280 -2333.68 280 -2333 280 C-2333 280.66 -2333 281.32 -2333 282 C-2332.34 282 -2331.68 282 -2331 282 C-2331 282.66 -2331 283.32 -2331 284 C-2330.34 284 -2329.68 284 -2329 284 C-2329 284.66 -2329 285.32 -2329 286 C-2328.34 286 -2327.68 286 -2327 286 C-2327 286.66 -2327 287.32 -2327 288 C-2326.34 288 -2325.68 288 -2325 288 C-2325 288.66 -2325 289.32 -2325 290 C-2324.34 290 -2323.68 290 -2323 290 C-2323 290.66 -2323 291.32 -2323 292 C-2322.34 292 -2321.68 292 -2321 292 C-2321 292.66 -2321 293.32 -2321 294 C-2320.34 294 -2319.68 294 -2319 294 C-2319 294.66 -2319 295.32 -2319 296 C-2318.34 296 -2317.68 296 -2317 296 C-2317 296.66 -2317 297.32 -2317 298 C-2316.34 298 -2315.68 298 -2315 298 C-2315 298.66 -2315 299.32 -2315 300 C-2314.34 300 -2313.68 300 -2313 300 C-2313 300.66 -2313 301.32 -2313 302 C-2312.34 302 -2311.68 302 -2311 302 C-2311 302.66 -2311 303.32 -2311 304 C-2310.34 304 -2309.68 304 -2309 304 C-2309 304.66 -2309 305.32 -2309 306 C-2308.34 306 -2307.68 306 -2307 306 C-2307 306.66 -2307 307.32 -2307 308 C-2306.34 308 -2305.68 308 -2305 308 C-2305 308.66 -2305 309.32 -2305 310 C-2304.34 310 -2303.68 310 -2303 310 C-2303 310.66 -2303 311.32 -2303 312 C-2302.34 312 -2301.68 312 -2301 312 C-2301 312.66 -2301 313.32 -2301 314 C-2300.34 314 -2299.68 314 -2299 314 C-2299 314.66 -2299 315.32 -2299 316 C-2297.68 316 -2296.36 316 -2295 316 C-2295 317.32 -2295 318.64 -2295 320 C-2293.68 320 -2292.36 320 -2291 320 C-2291 320.66 -2291 321.32 -2291 322 C-2290.34 322 -2289.68 322 -2289 322 C-2289 322.66 -2289 323.32 -2289 324 C-2288.34 324 -2287.68 324 -2287 324 C-2287 324.66 -2287 325.32 -2287 326 C-2286.34 326 -2285.68 326 -2285 326 C-2285 326.66 -2285 327.32 -2285 328 C-2284.34 328 -2283.68 328 -2283 328 C-2283 328.66 -2283 329.32 -2283 330 C-2282.34 330 -2281.68 330 -2281 330 C-2281 330.66 -2281 331.32 -2281 332 C-2280.34 332 -2279.68 332 -2279 332 C-2279 332.66 -2279 333.32 -2279 334 C-2278.34 334 -2277.68 334 -2277 334 C-2277 334.66 -2277 335.32 -2277 336 C-2276.34 336 -2275.68 336 -2275 336 C-2275 336.66 -2275 337.32 -2275 338 C-2274.34 338 -2273.68 338 -2273 338 C-2273 338.66 -2273 339.32 -2273 340 C-2272.34 340 -2271.68 340 -2271 340 C-2271 340.66 -2271 341.32 -2271 342 C-2270.34 342 -2269.68 342 -2269 342 C-2269 342.66 -2269 343.32 -2269 344 C-2268.34 344 -2267.68 344 -2267 344 C-2267 344.66 -2267 345.32 -2267 346 C-2266.34 346 -2265.68 346 -2265 346 C-2265 346.66 -2265 347.32 -2265 348 C-2264.34 348 -2263.68 348 -2263 348 C-2263 348.66 -2263 349.32 -2263 350 C-2262.34 350 -2261.68 350 -2261 350 C-2261 350.66 -2261 351.32 -2261 352 C-2260.34 352 -2259.68 352 -2259 352 C-2259 352.66 -2259 353.32 -2259 354 C-2257.68 354 -2256.36 354 -2255 354 C-2255 354.66 -2255 355.32 -2255 356 C-2254.34 356 -2253.68 356 -2253 356 C-2253 356.66 -2253 357.32 -2253 358 C-2252.34 358 -2251.68 358 -2251 358 C-2251 358.66 -2251 359.32 -2251 360 C-2250.34 360 -2249.68 360 -2249 360 C-2249 360.66 -2249 361.32 -2249 362 C-2248.34 362 -2247.68 362 -2247 362 C-2247 362.66 -2247 363.32 -2247 364 C-2246.34 364 -2245.68 364 -2245 364 C-2245 364.66 -2245 365.32 -2245 366 C-2244.34 366 -2243.68 366 -2243 366 C-2243 366.66 -2243 367.32 -2243 368 C-2242.34 368 -2241.68 368 -2241 368 C-2241 368.66 -2241 369.32 -2241 370 C-2240.34 370 -2239.68 370 -2239 370 C-2239 370.66 -2239 371.32 -2239 372 C-2237.68 372 -2236.36 372 -2235 372 C-2235 372.66 -2235 373.32 -2235 374 C-2234.34 374 -2233.68 374 -2233 374 C-2233 374.66 -2233 375.32 -2233 376 C-2232.34 376 -2231.68 376 -2231 376 C-2231 376.66 -2231 377.32 -2231 378 C-2230.34 378 -2229.68 378 -2229 378 C-2229 378.66 -2229 379.32 -2229 380 C-2228.34 380 -2227.68 380 -2227 380 C-2227 380.66 -2227 381.32 -2227 382 C-2226.38125 382.144375 -2225.7625 382.28875 -2225.125 382.4375 C-2223 383 -2223 383 -2221 384 C-2221 384.66 -2221 385.32 -2221 386 C-2220.34 386 -2219.68 386 -2219 386 C-2219 386.66 -2219 387.32 -2219 388 C-2218.34 388 -2217.68 388 -2217 388 C-2217 388.66 -2217 389.32 -2217 390 C-2216.34 390 -2215.68 390 -2215 390 C-2215 390.66 -2215 391.32 -2215 392 C-2214.34 392 -2213.68 392 -2213 392 C-2213 392.66 -2213 393.32 -2213 394 C-2211.68 394 -2210.36 394 -2209 394 C-2209 394.66 -2209 395.32 -2209 396 C-2208.34 396 -2207.68 396 -2207 396 C-2207 396.66 -2207 397.32 -2207 398 C-2206.34 398 -2205.68 398 -2205 398 C-2205 398.66 -2205 399.32 -2205 400 C-2204.34 400 -2203.68 400 -2203 400 C-2203 400.66 -2203 401.32 -2203 402 C-2201.68 402 -2200.36 402 -2199 402 C-2199 402.66 -2199 403.32 -2199 404 C-2198.34 404 -2197.68 404 -2197 404 C-2197 404.66 -2197 405.32 -2197 406 C-2196.34 406 -2195.68 406 -2195 406 C-2195 406.66 -2195 407.32 -2195 408 C-2194.34 408 -2193.68 408 -2193 408 C-2193 408.66 -2193 409.32 -2193 410 C-2191.68 410 -2190.36 410 -2189 410 C-2189 410.66 -2189 411.32 -2189 412 C-2188.34 412 -2187.68 412 -2187 412 C-2187 412.66 -2187 413.32 -2187 414 C-2186.34 414 -2185.68 414 -2185 414 C-2185 414.66 -2185 415.32 -2185 416 C-2183.68 416 -2182.36 416 -2181 416 C-2181 416.66 -2181 417.32 -2181 418 C-2180.34 418 -2179.68 418 -2179 418 C-2179 418.66 -2179 419.32 -2179 420 C-2178.34 420 -2177.68 420 -2177 420 C-2177 420.66 -2177 421.32 -2177 422 C-2175.68 422 -2174.36 422 -2173 422 C-2173 422.66 -2173 423.32 -2173 424 C-2172.34 424 -2171.68 424 -2171 424 C-2171 424.66 -2171 425.32 -2171 426 C-2170.34 426 -2169.68 426 -2169 426 C-2169 426.66 -2169 427.32 -2169 428 C-2167.68 428 -2166.36 428 -2165 428 C-2165 428.66 -2165 429.32 -2165 430 C-2164.34 430 -2163.68 430 -2163 430 C-2163 430.66 -2163 431.32 -2163 432 C-2161.68 432 -2160.36 432 -2159 432 C-2159 432.66 -2159 433.32 -2159 434 C-2158.34 434 -2157.68 434 -2157 434 C-2157 434.66 -2157 435.32 -2157 436 C-2155.68 436 -2154.36 436 -2153 436 C-2153 436.66 -2153 437.32 -2153 438 C-2152.34 438 -2151.68 438 -2151 438 C-2151 438.66 -2151 439.32 -2151 440 C-2150.34 440 -2149.68 440 -2149 440 C-2149 440.66 -2149 441.32 -2149 442 C-2147.68 442 -2146.36 442 -2145 442 C-2145 442.66 -2145 443.32 -2145 444 C-2144.34 444 -2143.68 444 -2143 444 C-2143 444.66 -2143 445.32 -2143 446 C-2141.68 446 -2140.36 446 -2139 446 C-2139 446.66 -2139 447.32 -2139 448 C-2138.34 448 -2137.68 448 -2137 448 C-2137 448.66 -2137 449.32 -2137 450 C-2135.68 450 -2134.36 450 -2133 450 C-2133 450.66 -2133 451.32 -2133 452 C-2132.34 452 -2131.68 452 -2131 452 C-2131 452.66 -2131 453.32 -2131 454 C-2129.68 454 -2128.36 454 -2127 454 C-2127 454.66 -2127 455.32 -2127 456 C-2125.68 456 -2124.36 456 -2123 456 C-2123 456.66 -2123 457.32 -2123 458 C-2122.34 458 -2121.68 458 -2121 458 C-2121 458.66 -2121 459.32 -2121 460 C-2119.68 460 -2118.36 460 -2117 460 C-2117 460.66 -2117 461.32 -2117 462 C-2116.34 462 -2115.68 462 -2115 462 C-2115 462.66 -2115 463.32 -2115 464 C-2113.68 464 -2112.36 464 -2111 464 C-2111 464.66 -2111 465.32 -2111 466 C-2109.68 466 -2108.36 466 -2107 466 C-2107 466.66 -2107 467.32 -2107 468 C-2106.34 468 -2105.68 468 -2105 468 C-2105 468.66 -2105 469.32 -2105 470 C-2103.68 470 -2102.36 470 -2101 470 C-2101 470.66 -2101 471.32 -2101 472 C-2099.68 472 -2098.36 472 -2097 472 C-2097 472.66 -2097 473.32 -2097 474 C-2096.34 474 -2095.68 474 -2095 474 C-2095 474.66 -2095 475.32 -2095 476 C-2093.68 476 -2092.36 476 -2091 476 C-2091 476.66 -2091 477.32 -2091 478 C-2089.68 478 -2088.36 478 -2087 478 C-2087 478.66 -2087 479.32 -2087 480 C-2085.68 480 -2084.36 480 -2083 480 C-2083 480.66 -2083 481.32 -2083 482 C-2082.34 482 -2081.68 482 -2081 482 C-2081 482.66 -2081 483.32 -2081 484 C-2079.68 484 -2078.36 484 -2077 484 C-2077 484.66 -2077 485.32 -2077 486 C-2075.68 486 -2074.36 486 -2073 486 C-2073 486.66 -2073 487.32 -2073 488 C-2071.68 488 -2070.36 488 -2069 488 C-2069 488.66 -2069 489.32 -2069 490 C-2067.68 490 -2066.36 490 -2065 490 C-2065 490.66 -2065 491.32 -2065 492 C-2063.68 492 -2062.36 492 -2061 492 C-2061 492.66 -2061 493.32 -2061 494 C-2060.34 494 -2059.68 494 -2059 494 C-2059 494.66 -2059 495.32 -2059 496 C-2057.68 496 -2056.36 496 -2055 496 C-2055 496.66 -2055 497.32 -2055 498 C-2053.68 498 -2052.36 498 -2051 498 C-2051 498.66 -2051 499.32 -2051 500 C-2049.68 500 -2048.36 500 -2047 500 C-2047 500.66 -2047 501.32 -2047 502 C-2045.68 502 -2044.36 502 -2043 502 C-2043 502.66 -2043 503.32 -2043 504 C-2041.68 504 -2040.36 504 -2039 504 C-2039 504.66 -2039 505.32 -2039 506 C-2037.02 506 -2035.04 506 -2033 506 C-2033 506.66 -2033 507.32 -2033 508 C-2031.68 508 -2030.36 508 -2029 508 C-2029 508.66 -2029 509.32 -2029 510 C-2027.68 510 -2026.36 510 -2025 510 C-2025 510.66 -2025 511.32 -2025 512 C-2023.68 512 -2022.36 512 -2021 512 C-2021 512.66 -2021 513.32 -2021 514 C-2019.68 514 -2018.36 514 -2017 514 C-2017 514.66 -2017 515.32 -2017 516 C-2015.68 516 -2014.36 516 -2013 516 C-2013 516.66 -2013 517.32 -2013 518 C-2011.68 518 -2010.36 518 -2009 518 C-2009 518.66 -2009 519.32 -2009 520 C-2007.02 520 -2005.04 520 -2003 520 C-2003 520.66 -2003 521.32 -2003 522 C-2001.68 522 -2000.36 522 -1999 522 C-1999 522.66 -1999 523.32 -1999 524 C-1997.02 524 -1995.04 524 -1993 524 C-1993 524.66 -1993 525.32 -1993 526 C-1991.68 526 -1990.36 526 -1989 526 C-1989 526.66 -1989 527.32 -1989 528 C-1987.68 528 -1986.36 528 -1985 528 C-1985 528.66 -1985 529.32 -1985 530 C-1983.02 530 -1981.04 530 -1979 530 C-1979 530.66 -1979 531.32 -1979 532 C-1977.68 532 -1976.36 532 -1975 532 C-1975 532.66 -1975 533.32 -1975 534 C-1973.02 534 -1971.04 534 -1969 534 C-1969 534.66 -1969 535.32 -1969 536 C-1967.02 536 -1965.04 536 -1963 536 C-1963 536.66 -1963 537.32 -1963 538 C-1961.68 538 -1960.36 538 -1959 538 C-1959 538.66 -1959 539.32 -1959 540 C-1957.02 540 -1955.04 540 -1953 540 C-1953 540.66 -1953 541.32 -1953 542 C-1951.02 542 -1949.04 542 -1947 542 C-1947 542.66 -1947 543.32 -1947 544 C-1945.02 544 -1943.04 544 -1941 544 C-1941 544.66 -1941 545.32 -1941 546 C-1939.02 546 -1937.04 546 -1935 546 C-1935 546.66 -1935 547.32 -1935 548 C-1933.02 548 -1931.04 548 -1929 548 C-1929 548.66 -1929 549.32 -1929 550 C-1927.02 550 -1925.04 550 -1923 550 C-1923 550.66 -1923 551.32 -1923 552 C-1921.02 552 -1919.04 552 -1917 552 C-1917 552.66 -1917 553.32 -1917 554 C-1914.36 554 -1911.72 554 -1909 554 C-1909 554.66 -1909 555.32 -1909 556 C-1907.02 556 -1905.04 556 -1903 556 C-1903 556.66 -1903 557.32 -1903 558 C-1900.36 558 -1897.72 558 -1895 558 C-1895 558.66 -1895 559.32 -1895 560 C-1893.02 560 -1891.04 560 -1889 560 C-1889 560.66 -1889 561.32 -1889 562 C-1886.36 562 -1883.72 562 -1881 562 C-1881 562.66 -1881 563.32 -1881 564 C-1879.02 564 -1877.04 564 -1875 564 C-1875 564.66 -1875 565.32 -1875 566 C-1872.36 566 -1869.72 566 -1867 566 C-1867 566.66 -1867 567.32 -1867 568 C-1863.7 568 -1860.4 568 -1857 568 C-1857 568.66 -1857 569.32 -1857 570 C-1854.36 570 -1851.72 570 -1849 570 C-1849 570.66 -1849 571.32 -1849 572 C-1846.36 572 -1843.72 572 -1841 572 C-1841 572.66 -1841 573.32 -1841 574 C-1837.7 574 -1834.4 574 -1831 574 C-1831 574.66 -1831 575.32 -1831 576 C-1827.7 576 -1824.4 576 -1821 576 C-1821 576.66 -1821 577.32 -1821 578 C-1817.7 578 -1814.4 578 -1811 578 C-1811 578.66 -1811 579.32 -1811 580 C-1807.7 580 -1804.4 580 -1801 580 C-1801 580.66 -1801 581.32 -1801 582 C-1800.21753906 581.98839844 -1799.43507813 581.97679687 -1798.62890625 581.96484375 C-1797.11103516 581.95130859 -1797.11103516 581.95130859 -1795.5625 581.9375 C-1794.04849609 581.92009766 -1794.04849609 581.92009766 -1792.50390625 581.90234375 C-1790 582 -1790 582 -1789 583 C-1786.98405418 583.23427778 -1784.961526 583.41336124 -1782.9375 583.5625 C-1781.83277344 583.64628906 -1780.72804688 583.73007812 -1779.58984375 583.81640625 C-1778.73519531 583.87699219 -1777.88054687 583.93757812 -1777 584 C-1777 584.66 -1777 585.32 -1777 586 C-1773.04 586 -1769.08 586 -1765 586 C-1765 586.66 -1765 587.32 -1765 588 C-1760.38 588 -1755.76 588 -1751 588 C-1751 588.66 -1751 589.32 -1751 590 C-1745.72 590 -1740.44 590 -1735 590 C-1735 590.66 -1735 591.32 -1735 592 C-1729.72 592 -1724.44 592 -1719 592 C-1719 592.66 -1719 593.32 -1719 594 C-1712.4 594 -1705.8 594 -1699 594 C-1699 594.66 -1699 595.32 -1699 596 C-1691.08 596 -1683.16 596 -1675 596 C-1675 596.66 -1675 597.32 -1675 598 C-1663.78 598 -1652.56 598 -1641 598 C-1641 598.66 -1641 599.32 -1641 600 C-1610.97 600 -1580.94 600 -1550 600 C-1550 599.34 -1550 598.68 -1550 598 C-1539.44 598 -1528.88 598 -1518 598 C-1518 597.34 -1518 596.68 -1518 596 C-1517.39937744 595.97494385 -1516.79875488 595.9498877 -1516.17993164 595.92407227 C-1513.47388563 595.8084472 -1510.76821717 595.68557064 -1508.0625 595.5625 C-1507.11697266 595.52318359 -1506.17144531 595.48386719 -1505.19726562 595.44335938 C-1504.29814453 595.40146484 -1503.39902344 595.35957031 -1502.47265625 595.31640625 C-1501.22367554 595.26141968 -1501.22367554 595.26141968 -1499.94946289 595.20532227 C-1497.99661142 595.20632897 -1497.99661142 595.20632897 -1497 594 C-1493.7901307 593.73001099 -1490.58769141 593.55388563 -1487.37109375 593.39453125 C-1483.89055723 593.5029448 -1483.89055723 593.5029448 -1481 592 C-1478.81360547 591.92741054 -1476.62499611 591.91626217 -1474.4375 591.9375 C-1473.23996094 591.94652344 -1472.04242187 591.95554687 -1470.80859375 591.96484375 C-1469.88175781 591.97644531 -1468.95492188 591.98804688 -1468 592 C-1468 591.34 -1468 590.68 -1468 590 C-1464.04 590 -1460.08 590 -1456 590 C-1456 589.34 -1456 588.68 -1456 588 C-1452.04 588 -1448.08 588 -1444 588 C-1444 587.34 -1444 586.68 -1444 586 C-1440.7 586 -1437.4 586 -1434 586 C-1434 585.34 -1434 584.68 -1434 584 C-1430.7 584 -1427.4 584 -1424 584 C-1424 583.34 -1424 582.68 -1424 582 C-1420.7 582 -1417.4 582 -1414 582 C-1414 581.34 -1414 580.68 -1414 580 C-1411.36 580 -1408.72 580 -1406 580 C-1406 579.34 -1406 578.68 -1406 578 C-1403.36 578 -1400.72 578 -1398 578 C-1398 577.34 -1398 576.68 -1398 576 C-1395.36 576 -1392.72 576 -1390 576 C-1390 575.34 -1390 574.68 -1390 574 C-1388.02 574 -1386.04 574 -1384 574 C-1384 573.34 -1384 572.68 -1384 572 C-1381.36 572 -1378.72 572 -1376 572 C-1376 571.34 -1376 570.68 -1376 570 C-1374.02 570 -1372.04 570 -1370 570 C-1370 569.34 -1370 568.68 -1370 568 C-1367.36 568 -1364.72 568 -1362 568 C-1362 567.34 -1362 566.68 -1362 566 C-1360.02 566 -1358.04 566 -1356 566 C-1356 565.34 -1356 564.68 -1356 564 C-1354.02 564 -1352.04 564 -1350 564 C-1350 563.34 -1350 562.68 -1350 562 C-1348.02 562 -1346.04 562 -1344 562 C-1344 561.34 -1344 560.68 -1344 560 C-1342.02 560 -1340.04 560 -1338 560 C-1338 559.34 -1338 558.68 -1338 558 C-1336.02 558 -1334.04 558 -1332 558 C-1332 557.34 -1332 556.68 -1332 556 C-1330.02 556 -1328.04 556 -1326 556 C-1326 555.34 -1326 554.68 -1326 554 C-1324.02 554 -1322.04 554 -1320 554 C-1320 553.34 -1320 552.68 -1320 552 C-1318.68 552 -1317.36 552 -1316 552 C-1316 551.34 -1316 550.68 -1316 550 C-1314.02 550 -1312.04 550 -1310 550 C-1310 549.34 -1310 548.68 -1310 548 C-1308.68 548 -1307.36 548 -1306 548 C-1306 547.34 -1306 546.68 -1306 546 C-1304.02 546 -1302.04 546 -1300 546 C-1300 545.34 -1300 544.68 -1300 544 C-1298.02 544 -1296.04 544 -1294 544 C-1294 543.34 -1294 542.68 -1294 542 C-1292.68 542 -1291.36 542 -1290 542 C-1290 541.34 -1290 540.68 -1290 540 C-1288.68 540 -1287.36 540 -1286 540 C-1286 539.34 -1286 538.68 -1286 538 C-1284.02 538 -1282.04 538 -1280 538 C-1280 537.34 -1280 536.68 -1280 536 C-1278.68 536 -1277.36 536 -1276 536 C-1276 535.34 -1276 534.68 -1276 534 C-1274.02 534 -1272.04 534 -1270 534 C-1270 533.34 -1270 532.68 -1270 532 C-1268.68 532 -1267.36 532 -1266 532 C-1266 531.34 -1266 530.68 -1266 530 C-1264.68 530 -1263.36 530 -1262 530 C-1262 529.34 -1262 528.68 -1262 528 C-1260.68 528 -1259.36 528 -1258 528 C-1258 527.34 -1258 526.68 -1258 526 C-1256.02 526 -1254.04 526 -1252 526 C-1252 525.34 -1252 524.68 -1252 524 C-1250.68 524 -1249.36 524 -1248 524 C-1248 523.34 -1248 522.68 -1248 522 C-1246.68 522 -1245.36 522 -1244 522 C-1244 521.34 -1244 520.68 -1244 520 C-1242.68 520 -1241.36 520 -1240 520 C-1240 519.34 -1240 518.68 -1240 518 C-1238.68 518 -1237.36 518 -1236 518 C-1236 517.34 -1236 516.68 -1236 516 C-1234.02 516 -1232.04 516 -1230 516 C-1230 515.34 -1230 514.68 -1230 514 C-1228.68 514 -1227.36 514 -1226 514 C-1226 513.34 -1226 512.68 -1226 512 C-1224.68 512 -1223.36 512 -1222 512 C-1222 511.34 -1222 510.68 -1222 510 C-1220.68 510 -1219.36 510 -1218 510 C-1218 509.34 -1218 508.68 -1218 508 C-1216.68 508 -1215.36 508 -1214 508 C-1214 507.34 -1214 506.68 -1214 506 C-1212.68 506 -1211.36 506 -1210 506 C-1210 505.34 -1210 504.68 -1210 504 C-1208.68 504 -1207.36 504 -1206 504 C-1206 503.34 -1206 502.68 -1206 502 C-1204.68 502 -1203.36 502 -1202 502 C-1202 501.34 -1202 500.68 -1202 500 C-1200.68 500 -1199.36 500 -1198 500 C-1198 499.34 -1198 498.68 -1198 498 C-1196.68 498 -1195.36 498 -1194 498 C-1194 497.34 -1194 496.68 -1194 496 C-1192.68 496 -1191.36 496 -1190 496 C-1190 495.34 -1190 494.68 -1190 494 C-1188.68 494 -1187.36 494 -1186 494 C-1186 493.34 -1186 492.68 -1186 492 C-1184.68 492 -1183.36 492 -1182 492 C-1182 491.34 -1182 490.68 -1182 490 C-1180.68 490 -1179.36 490 -1178 490 C-1178 489.34 -1178 488.68 -1178 488 C-1176.68 488 -1175.36 488 -1174 488 C-1174 487.34 -1174 486.68 -1174 486 C-1172.68 486 -1171.36 486 -1170 486 C-1170 485.34 -1170 484.68 -1170 484 C-1168.68 484 -1167.36 484 -1166 484 C-1166 483.34 -1166 482.68 -1166 482 C-1164.68 482 -1163.36 482 -1162 482 C-1162 481.34 -1162 480.68 -1162 480 C-1160.68 480 -1159.36 480 -1158 480 C-1158 479.34 -1158 478.68 -1158 478 C-1156.68 478 -1155.36 478 -1154 478 C-1154 477.34 -1154 476.68 -1154 476 C-1153.34 476 -1152.68 476 -1152 476 C-1152 475.34 -1152 474.68 -1152 474 C-1150.68 474 -1149.36 474 -1148 474 C-1148 473.34 -1148 472.68 -1148 472 C-1146.68 472 -1145.36 472 -1144 472 C-1144 471.34 -1144 470.68 -1144 470 C-1142.68 470 -1141.36 470 -1140 470 C-1140 469.34 -1140 468.68 -1140 468 C-1138.68 468 -1137.36 468 -1136 468 C-1136 467.34 -1136 466.68 -1136 466 C-1134.68 466 -1133.36 466 -1132 466 C-1132 465.34 -1132 464.68 -1132 464 C-1130.68 464 -1129.36 464 -1128 464 C-1128 463.34 -1128 462.68 -1128 462 C-1127.34 462 -1126.68 462 -1126 462 C-1126 461.34 -1126 460.68 -1126 460 C-1124.68 460 -1123.36 460 -1122 460 C-1122 459.34 -1122 458.68 -1122 458 C-1120.68 458 -1119.36 458 -1118 458 C-1118 457.34 -1118 456.68 -1118 456 C-1116.68 456 -1115.36 456 -1114 456 C-1114 455.34 -1114 454.68 -1114 454 C-1112.68 454 -1111.36 454 -1110 454 C-1110 453.34 -1110 452.68 -1110 452 C-1108.68 452 -1107.36 452 -1106 452 C-1106 451.34 -1106 450.68 -1106 450 C-1105.34 450 -1104.68 450 -1104 450 C-1104 449.34 -1104 448.68 -1104 448 C-1102.68 448 -1101.36 448 -1100 448 C-1100 447.34 -1100 446.68 -1100 446 C-1098.68 446 -1097.36 446 -1096 446 C-1096 445.34 -1096 444.68 -1096 444 C-1094.68 444 -1093.36 444 -1092 444 C-1092 443.34 -1092 442.68 -1092 442 C-1091.34 442 -1090.68 442 -1090 442 C-1090 441.34 -1090 440.68 -1090 440 C-1088.68 440 -1087.36 440 -1086 440 C-1086 439.34 -1086 438.68 -1086 438 C-1084.68 438 -1083.36 438 -1082 438 C-1082 437.34 -1082 436.68 -1082 436 C-1080.68 436 -1079.36 436 -1078 436 C-1078 435.34 -1078 434.68 -1078 434 C-1076.68 434 -1075.36 434 -1074 434 C-1074 433.34 -1074 432.68 -1074 432 C-1073.34 432 -1072.68 432 -1072 432 C-1072 431.34 -1072 430.68 -1072 430 C-1070.68 430 -1069.36 430 -1068 430 C-1068 429.34 -1068 428.68 -1068 428 C-1066.68 428 -1065.36 428 -1064 428 C-1064 427.34 -1064 426.68 -1064 426 C-1061 424 -1061 424 -1058 424 C-1058 423.34 -1058 422.68 -1058 422 C-1056.68 422 -1055.36 422 -1054 422 C-1054 421.34 -1054 420.68 -1054 420 C-1052.68 420 -1051.36 420 -1050 420 C-1050 419.34 -1050 418.68 -1050 418 C-1049.34 418 -1048.68 418 -1048 418 C-1048 417.34 -1048 416.68 -1048 416 C-1046.68 416 -1045.36 416 -1044 416 C-1044 415.34 -1044 414.68 -1044 414 C-1042.68 414 -1041.36 414 -1040 414 C-1040 413.34 -1040 412.68 -1040 412 C-1038.68 412 -1037.36 412 -1036 412 C-1036 411.34 -1036 410.68 -1036 410 C-1035.34 410 -1034.68 410 -1034 410 C-1034 409.34 -1034 408.68 -1034 408 C-1032.68 408 -1031.36 408 -1030 408 C-1030 407.34 -1030 406.68 -1030 406 C-1028.68 406 -1027.36 406 -1026 406 C-1026 405.34 -1026 404.68 -1026 404 C-1024.68 404 -1023.36 404 -1022 404 C-1022 403.34 -1022 402.68 -1022 402 C-1021.34 402 -1020.68 402 -1020 402 C-1020 401.34 -1020 400.68 -1020 400 C-1018.68 400 -1017.36 400 -1016 400 C-1016 399.34 -1016 398.68 -1016 398 C-1014.68 398 -1013.36 398 -1012 398 C-1012 397.34 -1012 396.68 -1012 396 C-1011.34 396 -1010.68 396 -1010 396 C-1010 395.34 -1010 394.68 -1010 394 C-1008.68 394 -1007.36 394 -1006 394 C-1006 393.34 -1006 392.68 -1006 392 C-1004.68 392 -1003.36 392 -1002 392 C-1002 391.34 -1002 390.68 -1002 390 C-1000.68 390 -999.36 390 -998 390 C-998 389.34 -998 388.68 -998 388 C-997.34 388 -996.68 388 -996 388 C-996 387.34 -996 386.68 -996 386 C-994.68 386 -993.36 386 -992 386 C-992 385.34 -992 384.68 -992 384 C-990.68 384 -989.36 384 -988 384 C-988 383.34 -988 382.68 -988 382 C-987.34 382 -986.68 382 -986 382 C-986 381.34 -986 380.68 -986 380 C-984.68 380 -983.36 380 -982 380 C-982 379.34 -982 378.68 -982 378 C-980.68 378 -979.36 378 -978 378 C-978 377.34 -978 376.68 -978 376 C-976.68 376 -975.36 376 -974 376 C-974 375.34 -974 374.68 -974 374 C-973.34 374 -972.68 374 -972 374 C-972 373.34 -972 372.68 -972 372 C-970.68 372 -969.36 372 -968 372 C-968 371.34 -968 370.68 -968 370 C-966.68 370 -965.36 370 -964 370 C-964 369.34 -964 368.68 -964 368 C-963.34 368 -962.68 368 -962 368 C-962 367.34 -962 366.68 -962 366 C-960.68 366 -959.36 366 -958 366 C-958 365.34 -958 364.68 -958 364 C-956.68 364 -955.36 364 -954 364 C-954 363.34 -954 362.68 -954 362 C-952.68 362 -951.36 362 -950 362 C-950 361.34 -950 360.68 -950 360 C-949.34 360 -948.68 360 -948 360 C-948 359.34 -948 358.68 -948 358 C-946.68 358 -945.36 358 -944 358 C-944 357.34 -944 356.68 -944 356 C-942.68 356 -941.36 356 -940 356 C-940 355.34 -940 354.68 -940 354 C-938.68 354 -937.36 354 -936 354 C-936 353.34 -936 352.68 -936 352 C-935.34 352 -934.68 352 -934 352 C-934 351.34 -934 350.68 -934 350 C-932.68 350 -931.36 350 -930 350 C-930 349.34 -930 348.68 -930 348 C-928.68 348 -927.36 348 -926 348 C-926 347.34 -926 346.68 -926 346 C-925.34 346 -924.68 346 -924 346 C-924 345.34 -924 344.68 -924 344 C-922.68 344 -921.36 344 -920 344 C-920 343.34 -920 342.68 -920 342 C-918.68 342 -917.36 342 -916 342 C-916 341.34 -916 340.68 -916 340 C-915.34 340 -914.68 340 -914 340 C-914 339.34 -914 338.68 -914 338 C-912.68 338 -911.36 338 -910 338 C-910 337.34 -910 336.68 -910 336 C-908.68 336 -907.36 336 -906 336 C-906 335.34 -906 334.68 -906 334 C-904.68 334 -903.36 334 -902 334 C-902 333.34 -902 332.68 -902 332 C-901.34 332 -900.68 332 -900 332 C-900 331.34 -900 330.68 -900 330 C-898.68 330 -897.36 330 -896 330 C-896 329.34 -896 328.68 -896 328 C-894.68 328 -893.36 328 -892 328 C-892 327.34 -892 326.68 -892 326 C-891.34 326 -890.68 326 -890 326 C-890 325.34 -890 324.68 -890 324 C-888.68 324 -887.36 324 -886 324 C-886 323.34 -886 322.68 -886 322 C-884.68 322 -883.36 322 -882 322 C-882 321.34 -882 320.68 -882 320 C-880.68 320 -879.36 320 -878 320 C-878 319.34 -878 318.68 -878 318 C-877.34 318 -876.68 318 -876 318 C-876 317.34 -876 316.68 -876 316 C-874.68 316 -873.36 316 -872 316 C-872 315.34 -872 314.68 -872 314 C-870.68 314 -869.36 314 -868 314 C-868 313.34 -868 312.68 -868 312 C-866.68 312 -865.36 312 -864 312 C-864 311.34 -864 310.68 -864 310 C-863.34 310 -862.68 310 -862 310 C-862 309.34 -862 308.68 -862 308 C-860.68 308 -859.36 308 -858 308 C-858 307.34 -858 306.68 -858 306 C-856.68 306 -855.36 306 -854 306 C-854 305.34 -854 304.68 -854 304 C-852.68 304 -851.36 304 -850 304 C-850 303.34 -850 302.68 -850 302 C-848.68 302 -847.36 302 -846 302 C-846 301.34 -846 300.68 -846 300 C-845.34 300 -844.68 300 -844 300 C-844 299.34 -844 298.68 -844 298 C-842.68 298 -841.36 298 -840 298 C-840 297.34 -840 296.68 -840 296 C-838.68 296 -837.36 296 -836 296 C-836 295.34 -836 294.68 -836 294 C-834.68 294 -833.36 294 -832 294 C-832 293.34 -832 292.68 -832 292 C-831.34 292 -830.68 292 -830 292 C-830 291.34 -830 290.68 -830 290 C-828.68 290 -827.36 290 -826 290 C-826 289.34 -826 288.68 -826 288 C-824.68 288 -823.36 288 -822 288 C-822 287.34 -822 286.68 -822 286 C-820.68 286 -819.36 286 -818 286 C-818 285.34 -818 284.68 -818 284 C-817.34 284 -816.68 284 -816 284 C-816 283.34 -816 282.68 -816 282 C-814.68 282 -813.36 282 -812 282 C-812 281.34 -812 280.68 -812 280 C-810.68 280 -809.36 280 -808 280 C-808 279.34 -808 278.68 -808 278 C-806.68 278 -805.36 278 -804 278 C-804 277.34 -804 276.68 -804 276 C-802.68 276 -801.36 276 -800 276 C-800 275.34 -800 274.68 -800 274 C-799.34 274 -798.68 274 -798 274 C-798 273.34 -798 272.68 -798 272 C-796.68 272 -795.36 272 -794 272 C-794 271.34 -794 270.68 -794 270 C-792.68 270 -791.36 270 -790 270 C-790 269.34 -790 268.68 -790 268 C-788.68 268 -787.36 268 -786 268 C-786 267.34 -786 266.68 -786 266 C-784.68 266 -783.36 266 -782 266 C-782 265.34 -782 264.68 -782 264 C-780.68 264 -779.36 264 -778 264 C-778 263.34 -778 262.68 -778 262 C-777.34 262 -776.68 262 -776 262 C-776 261.34 -776 260.68 -776 260 C-774.68 260 -773.36 260 -772 260 C-772 259.34 -772 258.68 -772 258 C-770.68 258 -769.36 258 -768 258 C-768 257.34 -768 256.68 -768 256 C-766.68 256 -765.36 256 -764 256 C-764 255.34 -764 254.68 -764 254 C-762.68 254 -761.36 254 -760 254 C-760 253.34 -760 252.68 -760 252 C-759.34 252 -758.68 252 -758 252 C-758 251.34 -758 250.68 -758 250 C-756.68 250 -755.36 250 -754 250 C-754 249.34 -754 248.68 -754 248 C-752.68 248 -751.36 248 -750 248 C-750 247.34 -750 246.68 -750 246 C-748.68 246 -747.36 246 -746 246 C-746 245.34 -746 244.68 -746 244 C-744.68 244 -743.36 244 -742 244 C-742 243.34 -742 242.68 -742 242 C-740.68 242 -739.36 242 -738 242 C-738 241.34 -738 240.68 -738 240 C-736.68 240 -735.36 240 -734 240 C-734 239.34 -734 238.68 -734 238 C-732.68 238 -731.36 238 -730 238 C-730 237.34 -730 236.68 -730 236 C-729.34 236 -728.68 236 -728 236 C-728 235.34 -728 234.68 -728 234 C-726.68 234 -725.36 234 -724 234 C-724 233.34 -724 232.68 -724 232 C-722.68 232 -721.36 232 -720 232 C-720 231.34 -720 230.68 -720 230 C-718.68 230 -717.36 230 -716 230 C-716 229.34 -716 228.68 -716 228 C-714.68 228 -713.36 228 -712 228 C-712 227.34 -712 226.68 -712 226 C-710.68 226 -709.36 226 -708 226 C-708 225.34 -708 224.68 -708 224 C-706.68 224 -705.36 224 -704 224 C-704 223.34 -704 222.68 -704 222 C-702.68 222 -701.36 222 -700 222 C-700 221.34 -700 220.68 -700 220 C-698.68 220 -697.36 220 -696 220 C-696 219.34 -696 218.68 -696 218 C-694.68 218 -693.36 218 -692 218 C-692 217.34 -692 216.68 -692 216 C-690.68 216 -689.36 216 -688 216 C-688 215.34 -688 214.68 -688 214 C-686.68 214 -685.36 214 -684 214 C-684 213.34 -684 212.68 -684 212 C-682.68 212 -681.36 212 -680 212 C-680 211.34 -680 210.68 -680 210 C-678.68 210 -677.36 210 -676 210 C-676 209.34 -676 208.68 -676 208 C-674.68 208 -673.36 208 -672 208 C-672 207.34 -672 206.68 -672 206 C-670.68 206 -669.36 206 -668 206 C-668 205.34 -668 204.68 -668 204 C-666.68 204 -665.36 204 -664 204 C-664 203.34 -664 202.68 -664 202 C-662.68 202 -661.36 202 -660 202 C-660 201.34 -660 200.68 -660 200 C-658.68 200 -657.36 200 -656 200 C-656 199.34 -656 198.68 -656 198 C-654.68 198 -653.36 198 -652 198 C-652 197.34 -652 196.68 -652 196 C-650.68 196 -649.36 196 -648 196 C-648 195.34 -648 194.68 -648 194 C-646.68 194 -645.36 194 -644 194 C-644 193.34 -644 192.68 -644 192 C-642.68 192 -641.36 192 -640 192 C-640 191.34 -640 190.68 -640 190 C-638.68 190 -637.36 190 -636 190 C-636 189.34 -636 188.68 -636 188 C-634.68 188 -633.36 188 -632 188 C-632 187.34 -632 186.68 -632 186 C-630.68 186 -629.36 186 -628 186 C-628 185.34 -628 184.68 -628 184 C-626.68 184 -625.36 184 -624 184 C-624 183.34 -624 182.68 -624 182 C-622.68 182 -621.36 182 -620 182 C-620 181.34 -620 180.68 -620 180 C-618.02 180 -616.04 180 -614 180 C-614 179.34 -614 178.68 -614 178 C-612.68 178 -611.36 178 -610 178 C-610 177.34 -610 176.68 -610 176 C-608.68 176 -607.36 176 -606 176 C-606 175.34 -606 174.68 -606 174 C-604.68 174 -603.36 174 -602 174 C-602 173.34 -602 172.68 -602 172 C-600.68 172 -599.36 172 -598 172 C-598 171.34 -598 170.68 -598 170 C-596.68 170 -595.36 170 -594 170 C-594 169.34 -594 168.68 -594 168 C-590.49223216 166.39644899 -587.85645121 165.77963136 -584 166 C-584 165.34 -584 164.68 -584 164 C-582.68 164 -581.36 164 -580 164 C-580 163.34 -580 162.68 -580 162 C-578.68 162 -577.36 162 -576 162 C-576 161.34 -576 160.68 -576 160 C-574.68 160 -573.36 160 -572 160 C-572 159.34 -572 158.68 -572 158 C-570.02 158 -568.04 158 -566 158 C-566 157.34 -566 156.68 -566 156 C-564.68 156 -563.36 156 -562 156 C-562 155.34 -562 154.68 -562 154 C-560.68 154 -559.36 154 -558 154 C-558 153.34 -558 152.68 -558 152 C-556.02 152 -554.04 152 -552 152 C-552 151.34 -552 150.68 -552 150 C-550.68 150 -549.36 150 -548 150 C-548 149.34 -548 148.68 -548 148 C-546.68 148 -545.36 148 -544 148 C-544 147.34 -544 146.68 -544 146 C-542.68 146 -541.36 146 -540 146 C-540 145.34 -540 144.68 -540 144 C-538.02 144 -536.04 144 -534 144 C-534 143.34 -534 142.68 -534 142 C-532.68 142 -531.36 142 -530 142 C-530 141.34 -530 140.68 -530 140 C-528.02 140 -526.04 140 -524 140 C-524 139.34 -524 138.68 -524 138 C-522.68 138 -521.36 138 -520 138 C-520 137.34 -520 136.68 -520 136 C-518.68 136 -517.36 136 -516 136 C-516 135.34 -516 134.68 -516 134 C-514.02 134 -512.04 134 -510 134 C-510 133.34 -510 132.68 -510 132 C-508.68 132 -507.36 132 -506 132 C-506 131.34 -506 130.68 -506 130 C-504.02 130 -502.04 130 -500 130 C-500 129.34 -500 128.68 -500 128 C-498.68 128 -497.36 128 -496 128 C-496 127.34 -496 126.68 -496 126 C-494.68 126 -493.36 126 -492 126 C-492 125.34 -492 124.68 -492 124 C-490.02 124 -488.04 124 -486 124 C-486 123.34 -486 122.68 -486 122 C-484.02 122 -482.04 122 -480 122 C-480 121.34 -480 120.68 -480 120 C-478.68 120 -477.36 120 -476 120 C-476 119.34 -476 118.68 -476 118 C-474.02 118 -472.04 118 -470 118 C-470 117.34 -470 116.68 -470 116 C-468.68 116 -467.36 116 -466 116 C-466 115.34 -466 114.68 -466 114 C-464.02 114 -462.04 114 -460 114 C-460 113.34 -460 112.68 -460 112 C-458.68 112 -457.36 112 -456 112 C-456 111.34 -456 110.68 -456 110 C-454.02 110 -452.04 110 -450 110 C-450 109.34 -450 108.68 -450 108 C-448.02 108 -446.04 108 -444 108 C-444 107.34 -444 106.68 -444 106 C-442.68 106 -441.36 106 -440 106 C-440 105.34 -440 104.68 -440 104 C-438.02 104 -436.04 104 -434 104 C-434 103.34 -434 102.68 -434 102 C-432.68 102 -431.36 102 -430 102 C-430 101.34 -430 100.68 -430 100 C-428.02 100 -426.04 100 -424 100 C-424 99.34 -424 98.68 -424 98 C-422.02 98 -420.04 98 -418 98 C-418 97.34 -418 96.68 -418 96 C-416.02 96 -414.04 96 -412 96 C-412 95.34 -412 94.68 -412 94 C-410.68 94 -409.36 94 -408 94 C-408 93.34 -408 92.68 -408 92 C-406.02 92 -404.04 92 -402 92 C-402 91.34 -402 90.68 -402 90 C-400.02 90 -398.04 90 -396 90 C-396 89.34 -396 88.68 -396 88 C-394.02 88 -392.04 88 -390 88 C-390 87.34 -390 86.68 -390 86 C-388.02 86 -386.04 86 -384 86 C-384 85.34 -384 84.68 -384 84 C-382.02 84 -380.04 84 -378 84 C-378 83.34 -378 82.68 -378 82 C-376.02 82 -374.04 82 -372 82 C-372 81.34 -372 80.68 -372 80 C-370.68 80 -369.36 80 -368 80 C-368 79.34 -368 78.68 -368 78 C-363.126739 76.4087311 -359.19209404 75.78807779 -354 76 C-354 75.34 -354 74.68 -354 74 C-352.02 74 -350.04 74 -348 74 C-348 73.34 -348 72.68 -348 72 C-346.02 72 -344.04 72 -342 72 C-342 71.34 -342 70.68 -342 70 C-340.02 70 -338.04 70 -336 70 C-336 69.34 -336 68.68 -336 68 C-334.02 68 -332.04 68 -330 68 C-330 67.34 -330 66.68 -330 66 C-328.02 66 -326.04 66 -324 66 C-324 65.34 -324 64.68 -324 64 C-322.02 64 -320.04 64 -318 64 C-318 63.34 -318 62.68 -318 62 C-315.36 62 -312.72 62 -310 62 C-310 61.34 -310 60.68 -310 60 C-308.02 60 -306.04 60 -304 60 C-304 59.34 -304 58.68 -304 58 C-302.02 58 -300.04 58 -298 58 C-298 57.34 -298 56.68 -298 56 C-295.36 56 -292.72 56 -290 56 C-290 55.34 -290 54.68 -290 54 C-288.02 54 -286.04 54 -284 54 C-284 53.34 -284 52.68 -284 52 C-281.36 52 -278.72 52 -276 52 C-276 51.34 -276 50.68 -276 50 C-274.02 50 -272.04 50 -270 50 C-270 49.34 -270 48.68 -270 48 C-267.36 48 -264.72 48 -262 48 C-262 47.34 -262 46.68 -262 46 C-259.36 46 -256.72 46 -254 46 C-254 45.34 -254 44.68 -254 44 C-252.02 44 -250.04 44 -248 44 C-248 43.34 -248 42.68 -248 42 C-245.36 42 -242.72 42 -240 42 C-240 41.34 -240 40.68 -240 40 C-237.36 40 -234.72 40 -232 40 C-232 39.34 -232 38.68 -232 38 C-229.36 38 -226.72 38 -224 38 C-224 37.34 -224 36.68 -224 36 C-221.36 36 -218.72 36 -216 36 C-216 35.34 -216 34.68 -216 34 C-213.36 34 -210.72 34 -208 34 C-208 33.34 -208 32.68 -208 32 C-204.7 32 -201.4 32 -198 32 C-198 31.34 -198 30.68 -198 30 C-195.36 30 -192.72 30 -190 30 C-190 29.34 -190 28.68 -190 28 C-186.7 28 -183.4 28 -180 28 C-180 27.34 -180 26.68 -180 26 C-177.36 26 -174.72 26 -172 26 C-172 25.34 -172 24.68 -172 24 C-168.7 24 -165.4 24 -162 24 C-162 23.34 -162 22.68 -162 22 C-158.7 22 -155.4 22 -152 22 C-152 21.34 -152 20.68 -152 20 C-148.7 20 -145.4 20 -142 20 C-142 19.34 -142 18.68 -142 18 C-138.04 18 -134.08 18 -130 18 C-130 17.34 -130 16.68 -130 16 C-126.7 16 -123.4 16 -120 16 C-120 15.34 -120 14.68 -120 14 C-116.04 14 -112.08 14 -108 14 C-108 13.34 -108 12.68 -108 12 C-103.38 12 -98.76 12 -94 12 C-94 11.34 -94 10.68 -94 10 C-89.38 10 -84.76 10 -80 10 C-80 9.34 -80 8.68 -80 8 C-75.38 8 -70.76 8 -66 8 C-66 7.34 -66 6.68 -66 6 C-60.06 6 -54.12 6 -48 6 C-48 5.34 -48 4.68 -48 4 C-41.4 4 -34.8 4 -28 4 C-28 3.34 -28 2.68 -28 2 C-18.76 2 -9.52 2 0 2 C0 1.34 0 0.68 0 0 Z " fill="#E9E9E9" transform="translate(3395,23)"/>
</svg>
